<svg width="25" height="25" viewBox="0 0 25 25" fill="none" xmlns="http://www.w3.org/2000/svg">
<path d="M13.3279 12.8799L13.332 0.422517C13.3321 0.187584 13.1366 -0.00727473 12.9018 0.000208608C5.87739 0.222825 0.223341 5.8757 0.000207586 12.8989C-0.00726741 13.1341 0.188141 13.3297 0.423541 13.3291L12.9122 13.2966C13.1419 13.296 13.3279 13.1096 13.3279 12.8799Z" fill="#A257FF"/>
<path d="M15.4888 1.85958C15.2335 1.81147 14.9961 2.01639 14.9965 2.27615L15.012 14.5463C15.0123 14.7764 14.826 14.9632 14.5958 14.9635L2.26967 14.9803C2.01078 14.9807 1.80667 15.2168 1.85387 15.4713C2.91323 21.1856 8.15162 25.4438 14.2682 24.9634C19.9066 24.5205 24.5157 19.9147 24.9624 14.2773C25.4465 8.16762 21.1964 2.93629 15.4888 1.85958Z" fill="#A257FF"/>
</svg>
