<svg width="25" height="25" viewBox="0 0 25 25" fill="none" xmlns="http://www.w3.org/2000/svg">
<path d="M22.1734 25C23.7503 25 25 23.7288 25 22.1916C25 20.6248 23.7206 19.3831 22.1734 19.3831C20.5965 19.3831 19.3468 20.6543 19.3468 22.1916C19.3468 23.7288 20.5965 25 22.1734 25ZM18.0377 5.42969C19.5253 5.60706 20.894 4.54282 21.0725 3.0647C21.251 1.55701 20.1799 0.197142 18.6922 0.0197676C17.1451 -0.157607 15.8061 0.877078 15.6276 2.38476C15.4491 3.89244 16.5202 5.22275 18.0377 5.42969ZM5.33287 6.0505C5.98745 5.22275 6.64203 4.395 7.29661 3.53769C7.53464 3.21251 7.83217 3.09426 8.24872 3.15338C10.0637 3.38988 11.9084 3.56726 13.7234 3.80376C14.0507 3.83332 14.4077 4.01069 14.6755 4.21763C15.6276 4.95669 16.5202 5.75488 17.4426 6.5235C17.9484 6.93737 18.1567 7.46949 18.0674 8.11987C17.9484 9.00674 17.8591 9.89361 17.7699 10.7805C17.7699 10.8987 17.7401 10.9874 17.7401 11.1352C17.8591 11.1648 17.9782 11.1648 18.0674 11.1648C19.079 11.283 20.0609 11.4013 21.0725 11.5195C21.7866 11.6082 22.2329 12.1108 22.1734 12.7907C22.0841 13.4707 21.5188 13.9141 20.8047 13.8254C19.1981 13.648 17.5616 13.4411 15.9549 13.2637C15.4491 13.2046 15.2111 12.909 15.2706 12.4064C15.3598 11.6674 15.4491 10.8987 15.5384 10.1597C15.5384 10.1301 15.5384 10.1301 15.5384 10.0119C14.6457 11.1057 13.7531 12.1404 12.8605 13.2046C12.9498 13.2933 13.0391 13.3524 13.0986 13.4115C13.9912 14.121 14.8838 14.8305 15.7764 15.5105C16.1929 15.8357 16.3715 16.2495 16.312 16.7817C16.0442 19.0875 15.7764 21.3934 15.5086 23.6993C15.4193 24.5566 14.7945 25.0591 13.9019 24.9704C13.0391 24.8818 12.563 24.4679 12.4737 23.7584C12.444 23.6106 12.4737 23.4923 12.5035 23.3445C12.7415 21.3934 12.9498 19.4423 13.1878 17.4911C13.2176 17.3433 13.2176 17.2251 13.0688 17.1068C12.206 16.486 11.3431 15.8357 10.4802 15.1853L9.43887 14.1506C9.2901 14.0028 7.6239 12.2586 9.05207 10.4849C10.153 9.09543 11.2538 7.706 12.3845 6.31656C12.444 6.22787 12.5332 6.13919 12.6225 6.02094C12.5332 5.99138 12.444 5.96181 12.3845 5.96181C11.2836 5.84356 10.153 5.69575 9.05207 5.5775C8.8438 5.54794 8.75454 5.60706 8.63552 5.75487C8.15946 6.34612 7.71316 6.93737 7.2371 7.52862C6.76105 8.11987 6.07671 8.20856 5.51139 7.79468C4.91632 7.38081 4.85681 6.64175 5.33287 6.0505ZM0.0069786 15.0375C0.0664858 14.3871 0.364023 13.855 0.988848 13.5594C1.43515 13.3524 1.8517 13.4411 2.2385 13.6776C3.30963 14.2688 4.38076 14.8601 5.45189 15.4513C5.54115 15.5105 5.63041 15.5696 5.77917 15.6287C5.83868 15.5105 5.89819 15.4218 5.92794 15.3331C6.52301 14.2689 6.46351 14.3871 7.05858 13.3228C7.08833 13.2933 7.29661 12.909 7.47513 12.6134C7.65366 13.5593 8.18922 14.3575 8.66528 14.8601L9.31986 15.5105C8.69503 16.6338 8.04045 17.7868 7.44538 18.851C7.08834 19.5014 6.67178 19.6196 6.0172 19.2649C4.26174 18.2893 2.50628 17.3138 0.750819 16.3678C0.274761 16.0426 -0.0525286 15.6287 0.0069786 15.0375Z" fill="white"/>
</svg>
