<svg width="25" height="19" viewBox="0 0 25 19" fill="none" xmlns="http://www.w3.org/2000/svg">
<path d="M16.5328 0H1.51572C0.678547 0 0 0.678819 0 1.51572V16.5321C0 17.3693 0.678818 18.0479 1.51572 18.0479H16.5321C17.3693 18.0479 18.0478 17.369 18.0478 16.5321L18.0481 1.51639C18.0484 0.679224 17.3698 0.000406842 16.5326 0.000406842L16.5328 0ZM11.8412 12.2886C11.2348 12.6615 10.5269 12.9195 9.75133 13.0288C9.53008 13.0692 9.31437 13.097 9.11506 13.097C9.08387 13.097 9.05558 13.0898 9.02439 13.0893C8.99294 13.0896 8.96491 13.097 8.93373 13.097C8.73441 13.097 8.51871 13.0697 8.29719 13.0288C7.52187 12.9196 6.81341 12.6616 6.20728 12.2886C3.72825 11.1017 1.11733 9.0242 1.11733 9.0242C1.11733 9.0242 3.72852 6.94673 6.20728 5.75984C6.81368 5.38685 7.52187 5.12858 8.29719 5.01964C8.51897 4.97919 8.73441 4.95144 8.93373 4.95144C8.96492 4.95144 8.9932 4.95858 9.02439 4.9591C9.05585 4.95884 9.08387 4.95144 9.11506 4.95144C9.31437 4.95144 9.53008 4.9792 9.75133 5.01964C10.5272 5.12881 11.2351 5.38681 11.8412 5.75984C14.3205 6.94673 16.9315 9.0242 16.9315 9.0242C16.9315 9.0242 14.3205 11.1017 11.8412 12.2886Z" fill="white"/>
<path d="M11.5352 9.02444C11.5352 10.4109 10.411 11.5352 9.02444 11.5352C7.63791 11.5352 6.51367 10.411 6.51367 9.02444C6.51367 7.63791 7.63791 6.51367 9.02444 6.51367C10.411 6.51367 11.5352 7.63791 11.5352 9.02444Z" fill="white"/>
<path d="M18.8892 6.46111V11.5867L25 16.5926V1.45508L18.8892 6.46111Z" fill="white"/>
</svg>
