<svg width="842" height="288" viewBox="0 0 842 288" fill="none" xmlns="http://www.w3.org/2000/svg">
<path d="M20.8862 268.12C22.5662 268.12 23.7062 267.268 23.7062 263.836C23.7062 260.416 22.5662 259.552 20.8862 259.552C19.2302 259.552 18.0782 260.416 18.0782 263.836C18.0782 267.268 19.2302 268.12 20.8862 268.12ZM20.8862 267.22C19.7222 267.22 19.1822 266.512 19.1822 263.836C19.1822 261.172 19.7222 260.464 20.8862 260.464C22.0622 260.464 22.6142 261.172 22.6142 263.836C22.6142 266.512 22.0622 267.22 20.8862 267.22ZM26.6645 264.124C27.7085 264.124 28.3685 263.62 28.3685 261.844C28.3685 260.068 27.7085 259.552 26.6645 259.552C25.6205 259.552 24.9605 260.068 24.9605 261.844C24.9605 263.62 25.6205 264.124 26.6645 264.124ZM26.3285 268H27.1205L31.7885 259.672H30.9845L26.3285 268ZM26.6645 263.5C26.0045 263.5 25.7645 263.14 25.7645 261.844C25.7645 260.56 26.0045 260.212 26.6645 260.212C27.3485 260.212 27.5765 260.56 27.5765 261.844C27.5765 263.14 27.3485 263.5 26.6645 263.5ZM31.4765 268.12C32.5205 268.12 33.1805 267.616 33.1805 265.84C33.1805 264.064 32.5205 263.548 31.4765 263.548C30.4325 263.548 29.7605 264.064 29.7605 265.84C29.7605 267.616 30.4325 268.12 31.4765 268.12ZM31.4765 267.496C30.8165 267.496 30.5765 267.136 30.5765 265.84C30.5765 264.556 30.8165 264.208 31.4765 264.208C32.1605 264.208 32.3765 264.556 32.3765 265.84C32.3765 267.136 32.1605 267.496 31.4765 267.496Z" fill="white" fill-opacity="0.45"/>
<path d="M3.89241 220.6H4.97241V212.272H4.26441L1.82841 212.776V213.652L3.89241 213.256V220.6ZM8.00275 220.6H13.4867V219.688H9.19075V219.58L9.67075 219.208C12.3587 217.06 13.1507 216.052 13.1507 214.54C13.1507 212.836 12.1067 212.152 10.4747 212.152C9.77875 212.152 9.14275 212.212 8.57875 212.344V213.268C9.22675 213.1 9.82675 213.052 10.3547 213.052C11.1707 213.052 12.1187 213.328 12.1187 214.528C12.1187 215.716 11.5427 216.688 8.00275 219.46V220.6ZM15.8331 220.672C16.3851 220.672 16.6011 220.576 16.6011 219.904C16.6011 219.256 16.3851 219.16 15.8331 219.16C15.2691 219.16 15.0651 219.256 15.0651 219.904C15.0651 220.576 15.2691 220.672 15.8331 220.672ZM20.8862 220.72C22.5662 220.72 23.7062 219.868 23.7062 216.436C23.7062 213.016 22.5662 212.152 20.8862 212.152C19.2302 212.152 18.0782 213.016 18.0782 216.436C18.0782 219.868 19.2302 220.72 20.8862 220.72ZM20.8862 219.82C19.7222 219.82 19.1822 219.112 19.1822 216.436C19.1822 213.772 19.7222 213.064 20.8862 213.064C22.0622 213.064 22.6142 213.772 22.6142 216.436C22.6142 219.112 22.0622 219.82 20.8862 219.82ZM26.6645 216.724C27.7085 216.724 28.3685 216.22 28.3685 214.444C28.3685 212.668 27.7085 212.152 26.6645 212.152C25.6205 212.152 24.9605 212.668 24.9605 214.444C24.9605 216.22 25.6205 216.724 26.6645 216.724ZM26.3285 220.6H27.1205L31.7885 212.272H30.9845L26.3285 220.6ZM26.6645 216.1C26.0045 216.1 25.7645 215.74 25.7645 214.444C25.7645 213.16 26.0045 212.812 26.6645 212.812C27.3485 212.812 27.5765 213.16 27.5765 214.444C27.5765 215.74 27.3485 216.1 26.6645 216.1ZM31.4765 220.72C32.5205 220.72 33.1805 220.216 33.1805 218.44C33.1805 216.664 32.5205 216.148 31.4765 216.148C30.4325 216.148 29.7605 216.664 29.7605 218.44C29.7605 220.216 30.4325 220.72 31.4765 220.72ZM31.4765 220.096C30.8165 220.096 30.5765 219.736 30.5765 218.44C30.5765 217.156 30.8165 216.808 31.4765 216.808C32.1605 216.808 32.3765 217.156 32.3765 218.44C32.3765 219.736 32.1605 220.096 31.4765 220.096Z" fill="white" fill-opacity="0.45"/>
<path d="M1.30041 167.2H6.78441V166.288H2.48841V166.18L2.96841 165.808C5.65641 163.66 6.44841 162.652 6.44841 161.14C6.44841 159.436 5.40441 158.752 3.77241 158.752C3.07641 158.752 2.44041 158.812 1.87641 158.944V159.868C2.52441 159.7 3.12441 159.652 3.65241 159.652C4.46841 159.652 5.41641 159.928 5.41641 161.128C5.41641 162.316 4.84041 163.288 1.30041 166.06V167.2ZM13.6667 164.236H12.6827V158.872H11.3867L7.73875 163.984V165.148H11.6747V167.2H12.6827V165.148H13.6667V164.236ZM8.65075 164.236V164.164L11.6027 159.976H11.6747V164.236H8.65075ZM15.8331 167.272C16.3851 167.272 16.6011 167.176 16.6011 166.504C16.6011 165.856 16.3851 165.76 15.8331 165.76C15.2691 165.76 15.0651 165.856 15.0651 166.504C15.0651 167.176 15.2691 167.272 15.8331 167.272ZM20.8862 167.32C22.5662 167.32 23.7062 166.468 23.7062 163.036C23.7062 159.616 22.5662 158.752 20.8862 158.752C19.2302 158.752 18.0782 159.616 18.0782 163.036C18.0782 166.468 19.2302 167.32 20.8862 167.32ZM20.8862 166.42C19.7222 166.42 19.1822 165.712 19.1822 163.036C19.1822 160.372 19.7222 159.664 20.8862 159.664C22.0622 159.664 22.6142 160.372 22.6142 163.036C22.6142 165.712 22.0622 166.42 20.8862 166.42ZM26.6645 163.324C27.7085 163.324 28.3685 162.82 28.3685 161.044C28.3685 159.268 27.7085 158.752 26.6645 158.752C25.6205 158.752 24.9605 159.268 24.9605 161.044C24.9605 162.82 25.6205 163.324 26.6645 163.324ZM26.3285 167.2H27.1205L31.7885 158.872H30.9845L26.3285 167.2ZM26.6645 162.7C26.0045 162.7 25.7645 162.34 25.7645 161.044C25.7645 159.76 26.0045 159.412 26.6645 159.412C27.3485 159.412 27.5765 159.76 27.5765 161.044C27.5765 162.34 27.3485 162.7 26.6645 162.7ZM31.4765 167.32C32.5205 167.32 33.1805 166.816 33.1805 165.04C33.1805 163.264 32.5205 162.748 31.4765 162.748C30.4325 162.748 29.7605 163.264 29.7605 165.04C29.7605 166.816 30.4325 167.32 31.4765 167.32ZM31.4765 166.696C30.8165 166.696 30.5765 166.336 30.5765 165.04C30.5765 163.756 30.8165 163.408 31.4765 163.408C32.1605 163.408 32.3765 163.756 32.3765 165.04C32.3765 166.336 32.1605 166.696 31.4765 166.696Z" fill="white" fill-opacity="0.45"/>
<path d="M3.32841 114.92C5.53641 114.92 6.53241 114.044 6.53241 112.508C6.53241 111.404 6.01641 110.708 4.84041 110.504V110.432C5.75241 110.156 6.31641 109.616 6.31641 108.536C6.31641 107.012 5.38041 106.352 3.59241 106.352C2.95641 106.352 2.26041 106.46 1.85241 106.592V107.48C2.38041 107.324 3.06441 107.24 3.54441 107.24C4.74441 107.24 5.32041 107.624 5.32041 108.596C5.32041 109.508 4.55241 110.084 3.10041 110.084H2.45241V110.912H3.11241C4.69641 110.912 5.50041 111.308 5.50041 112.496C5.50041 113.66 4.56441 114.02 3.31641 114.02C2.68041 114.02 2.09241 113.972 1.45641 113.816V114.764C2.00841 114.872 2.65641 114.92 3.32841 114.92ZM10.7627 114.92C12.6347 114.92 13.4747 113.696 13.4747 112.064C13.4747 110.252 12.4907 109.376 10.9427 109.376C10.1387 109.376 9.46675 109.736 9.15475 110.06H9.11875C9.25075 108.488 10.4027 107.264 12.4547 107.264L12.4667 106.352C9.32275 106.352 8.00275 108.464 8.00275 111.572C8.00275 114.152 9.23875 114.92 10.7627 114.92ZM10.7507 114.02C9.62275 114.02 9.03475 113.312 9.03475 111.872C9.03475 110.888 9.59875 110.204 10.8947 110.204C11.8307 110.204 12.4907 110.816 12.4907 112.064C12.4907 113.372 11.8787 114.02 10.7507 114.02ZM15.8331 114.872C16.3851 114.872 16.6011 114.776 16.6011 114.104C16.6011 113.456 16.3851 113.36 15.8331 113.36C15.2691 113.36 15.0651 113.456 15.0651 114.104C15.0651 114.776 15.2691 114.872 15.8331 114.872ZM20.8862 114.92C22.5662 114.92 23.7062 114.068 23.7062 110.636C23.7062 107.216 22.5662 106.352 20.8862 106.352C19.2302 106.352 18.0782 107.216 18.0782 110.636C18.0782 114.068 19.2302 114.92 20.8862 114.92ZM20.8862 114.02C19.7222 114.02 19.1822 113.312 19.1822 110.636C19.1822 107.972 19.7222 107.264 20.8862 107.264C22.0622 107.264 22.6142 107.972 22.6142 110.636C22.6142 113.312 22.0622 114.02 20.8862 114.02ZM26.6645 110.924C27.7085 110.924 28.3685 110.42 28.3685 108.644C28.3685 106.868 27.7085 106.352 26.6645 106.352C25.6205 106.352 24.9605 106.868 24.9605 108.644C24.9605 110.42 25.6205 110.924 26.6645 110.924ZM26.3285 114.8H27.1205L31.7885 106.472H30.9845L26.3285 114.8ZM26.6645 110.3C26.0045 110.3 25.7645 109.94 25.7645 108.644C25.7645 107.36 26.0045 107.012 26.6645 107.012C27.3485 107.012 27.5765 107.36 27.5765 108.644C27.5765 109.94 27.3485 110.3 26.6645 110.3ZM31.4765 114.92C32.5205 114.92 33.1805 114.416 33.1805 112.64C33.1805 110.864 32.5205 110.348 31.4765 110.348C30.4325 110.348 29.7605 110.864 29.7605 112.64C29.7605 114.416 30.4325 114.92 31.4765 114.92ZM31.4765 114.296C30.8165 114.296 30.5765 113.936 30.5765 112.64C30.5765 111.356 30.8165 111.008 31.4765 111.008C32.1605 111.008 32.3765 111.356 32.3765 112.64C32.3765 113.936 32.1605 114.296 31.4765 114.296Z" fill="white" fill-opacity="0.45"/>
<path d="M6.96441 60.4364H5.98041V55.0724H4.68441L1.03641 60.1844V61.3484H4.97241V63.4004H5.98041V61.3484H6.96441V60.4364ZM1.94841 60.4364V60.3644L4.90041 56.1764H4.97241V60.4364H1.94841ZM10.7627 63.5204C12.5627 63.5204 13.6068 62.8004 13.6068 61.2044C13.6068 59.9084 12.9467 59.3564 12.1307 59.1164V59.0684C12.9347 58.7444 13.3307 58.1684 13.3307 57.1724C13.3307 55.8524 12.5627 54.9524 10.7627 54.9524C8.97475 54.9524 8.19475 55.8524 8.19475 57.1724C8.19475 58.2164 8.69875 58.7444 9.39475 59.0684V59.1164C8.69875 59.3564 7.91875 59.8964 7.91875 61.1924C7.91875 62.7884 8.97475 63.5204 10.7627 63.5204ZM10.7627 58.7204C9.51475 58.7204 9.16675 58.0604 9.16675 57.2444C9.16675 56.2844 9.68275 55.8164 10.7627 55.8164C11.8307 55.8164 12.3587 56.3444 12.3587 57.2444C12.3587 58.0604 11.9507 58.7204 10.7627 58.7204ZM10.7627 62.6444C9.45475 62.6444 8.92675 62.0564 8.92675 61.1564C8.92675 60.0284 9.51475 59.5124 10.7627 59.5124C12.0107 59.5124 12.6107 60.0284 12.6107 61.1564C12.6107 62.0564 12.0707 62.6444 10.7627 62.6444ZM15.8331 63.4724C16.3851 63.4724 16.6011 63.3764 16.6011 62.7044C16.6011 62.0564 16.3851 61.9604 15.8331 61.9604C15.2691 61.9604 15.0651 62.0564 15.0651 62.7044C15.0651 63.3764 15.2691 63.4724 15.8331 63.4724ZM20.8862 63.5204C22.5662 63.5204 23.7062 62.6684 23.7062 59.2364C23.7062 55.8164 22.5662 54.9524 20.8862 54.9524C19.2302 54.9524 18.0782 55.8164 18.0782 59.2364C18.0782 62.6684 19.2302 63.5204 20.8862 63.5204ZM20.8862 62.6204C19.7222 62.6204 19.1822 61.9124 19.1822 59.2364C19.1822 56.5724 19.7222 55.8644 20.8862 55.8644C22.0622 55.8644 22.6142 56.5724 22.6142 59.2364C22.6142 61.9124 22.0622 62.6204 20.8862 62.6204ZM26.6645 59.5244C27.7085 59.5244 28.3685 59.0204 28.3685 57.2444C28.3685 55.4684 27.7085 54.9524 26.6645 54.9524C25.6205 54.9524 24.9605 55.4684 24.9605 57.2444C24.9605 59.0204 25.6205 59.5244 26.6645 59.5244ZM26.3285 63.4004H27.1205L31.7885 55.0724H30.9845L26.3285 63.4004ZM26.6645 58.9004C26.0045 58.9004 25.7645 58.5404 25.7645 57.2444C25.7645 55.9604 26.0045 55.6124 26.6645 55.6124C27.3485 55.6124 27.5765 55.9604 27.5765 57.2444C27.5765 58.5404 27.3485 58.9004 26.6645 58.9004ZM31.4765 63.5204C32.5205 63.5204 33.1805 63.0164 33.1805 61.2404C33.1805 59.4644 32.5205 58.9484 31.4765 58.9484C30.4325 58.9484 29.7605 59.4644 29.7605 61.2404C29.7605 63.0164 30.4325 63.5204 31.4765 63.5204ZM31.4765 62.8964C30.8165 62.8964 30.5765 62.5364 30.5765 61.2404C30.5765 59.9564 30.8165 59.6084 31.4765 59.6084C32.1605 59.6084 32.3765 59.9564 32.3765 61.2404C32.3765 62.5364 32.1605 62.8964 31.4765 62.8964Z" fill="white" fill-opacity="0.45"/>
<path d="M4.06041 11.12C5.93241 11.12 6.77241 9.896 6.77241 8.264C6.77241 6.452 5.78841 5.576 4.24041 5.576C3.43641 5.576 2.76441 5.936 2.45241 6.26H2.41641C2.54841 4.688 3.70041 3.464 5.75241 3.464L5.76441 2.552C2.62041 2.552 1.30041 4.664 1.30041 7.772C1.30041 10.352 2.53641 11.12 4.06041 11.12ZM4.04841 10.22C2.92041 10.22 2.33241 9.512 2.33241 8.072C2.33241 7.088 2.89641 6.404 4.19241 6.404C5.12841 6.404 5.78841 7.016 5.78841 8.264C5.78841 9.572 5.17641 10.22 4.04841 10.22ZM10.7627 11.12C12.4427 11.12 13.5827 10.268 13.5827 6.836C13.5827 3.416 12.4427 2.552 10.7627 2.552C9.10675 2.552 7.95475 3.416 7.95475 6.836C7.95475 10.268 9.10675 11.12 10.7627 11.12ZM10.7627 10.22C9.59875 10.22 9.05875 9.512 9.05875 6.836C9.05875 4.172 9.59875 3.464 10.7627 3.464C11.9387 3.464 12.4907 4.172 12.4907 6.836C12.4907 9.512 11.9387 10.22 10.7627 10.22ZM15.8331 11.072C16.3851 11.072 16.6011 10.976 16.6011 10.304C16.6011 9.656 16.3851 9.56 15.8331 9.56C15.2691 9.56 15.0651 9.656 15.0651 10.304C15.0651 10.976 15.2691 11.072 15.8331 11.072ZM20.8862 11.12C22.5662 11.12 23.7062 10.268 23.7062 6.836C23.7062 3.416 22.5662 2.552 20.8862 2.552C19.2302 2.552 18.0782 3.416 18.0782 6.836C18.0782 10.268 19.2302 11.12 20.8862 11.12ZM20.8862 10.22C19.7222 10.22 19.1822 9.512 19.1822 6.836C19.1822 4.172 19.7222 3.464 20.8862 3.464C22.0622 3.464 22.6142 4.172 22.6142 6.836C22.6142 9.512 22.0622 10.22 20.8862 10.22ZM26.6645 7.124C27.7085 7.124 28.3685 6.62 28.3685 4.844C28.3685 3.068 27.7085 2.552 26.6645 2.552C25.6205 2.552 24.9605 3.068 24.9605 4.844C24.9605 6.62 25.6205 7.124 26.6645 7.124ZM26.3285 11H27.1205L31.7885 2.672H30.9845L26.3285 11ZM26.6645 6.5C26.0045 6.5 25.7645 6.14 25.7645 4.844C25.7645 3.56 26.0045 3.212 26.6645 3.212C27.3485 3.212 27.5765 3.56 27.5765 4.844C27.5765 6.14 27.3485 6.5 26.6645 6.5ZM31.4765 11.12C32.5205 11.12 33.1805 10.616 33.1805 8.84C33.1805 7.064 32.5205 6.548 31.4765 6.548C30.4325 6.548 29.7605 7.064 29.7605 8.84C29.7605 10.616 30.4325 11.12 31.4765 11.12ZM31.4765 10.496C30.8165 10.496 30.5765 10.136 30.5765 8.84C30.5765 7.556 30.8165 7.208 31.4765 7.208C32.1605 7.208 32.3765 7.556 32.3765 8.84C32.3765 10.136 32.1605 10.496 31.4765 10.496Z" fill="white" fill-opacity="0.45"/>
<path d="M45 215.5H841" stroke="#416180" stroke-opacity="0.151934" stroke-width="0.5" stroke-linecap="square"/>
<path d="M45 163.5H841" stroke="#416180" stroke-opacity="0.151934" stroke-width="0.5" stroke-linecap="square"/>
<path d="M45 111.5H841" stroke="#416180" stroke-opacity="0.151934" stroke-width="0.5" stroke-linecap="square"/>
<path d="M45 58.5H841" stroke="#416180" stroke-opacity="0.151934" stroke-width="0.5" stroke-linecap="square"/>
<path d="M45 6L841 5" stroke="#416180" stroke-opacity="0.151934" stroke-width="0.5" stroke-linecap="square"/>
<path d="M141.267 287H142.347V278.672H141.639L139.203 279.176V280.052L141.267 279.656V287ZM146.409 287.144C149.553 287.144 150.849 285.044 150.849 281.936C150.849 279.38 149.625 278.552 148.101 278.552C146.241 278.552 145.377 279.836 145.377 281.468C145.377 283.292 146.397 284.096 147.933 284.096C148.749 284.096 149.409 283.748 149.709 283.412H149.757C149.601 285.008 148.521 286.244 146.421 286.244L146.409 287.144ZM147.969 283.28C147.045 283.28 146.385 282.704 146.385 281.468C146.385 280.16 146.973 279.44 148.101 279.44C149.229 279.44 149.841 280.22 149.841 281.624C149.841 282.62 149.265 283.28 147.969 283.28ZM153.111 287.144C156.255 287.144 157.551 285.044 157.551 281.936C157.551 279.38 156.327 278.552 154.803 278.552C152.943 278.552 152.079 279.836 152.079 281.468C152.079 283.292 153.099 284.096 154.635 284.096C155.451 284.096 156.111 283.748 156.411 283.412H156.459C156.303 285.008 155.223 286.244 153.123 286.244L153.111 287.144ZM154.671 283.28C153.747 283.28 153.087 282.704 153.087 281.468C153.087 280.16 153.675 279.44 154.803 279.44C155.931 279.44 156.543 280.22 156.543 281.624C156.543 282.62 155.967 283.28 154.671 283.28ZM161.542 287.12C163.222 287.12 164.362 286.268 164.362 282.836C164.362 279.416 163.222 278.552 161.542 278.552C159.886 278.552 158.734 279.416 158.734 282.836C158.734 286.268 159.886 287.12 161.542 287.12ZM161.542 286.22C160.378 286.22 159.838 285.512 159.838 282.836C159.838 280.172 160.378 279.464 161.542 279.464C162.718 279.464 163.27 280.172 163.27 282.836C163.27 285.512 162.718 286.22 161.542 286.22Z" fill="white" fill-opacity="0.45"/>
<path d="M203.267 287H204.347V278.672H203.639L201.203 279.176V280.052L203.267 279.656V287ZM208.409 287.144C211.553 287.144 212.849 285.044 212.849 281.936C212.849 279.38 211.625 278.552 210.101 278.552C208.241 278.552 207.377 279.836 207.377 281.468C207.377 283.292 208.397 284.096 209.933 284.096C210.749 284.096 211.409 283.748 211.709 283.412H211.757C211.601 285.008 210.521 286.244 208.421 286.244L208.409 287.144ZM209.969 283.28C209.045 283.28 208.385 282.704 208.385 281.468C208.385 280.16 208.973 279.44 210.101 279.44C211.229 279.44 211.841 280.22 211.841 281.624C211.841 282.62 211.265 283.28 209.969 283.28ZM215.111 287.144C218.255 287.144 219.551 285.044 219.551 281.936C219.551 279.38 218.327 278.552 216.803 278.552C214.943 278.552 214.079 279.836 214.079 281.468C214.079 283.292 215.099 284.096 216.635 284.096C217.451 284.096 218.111 283.748 218.411 283.412H218.459C218.303 285.008 217.223 286.244 215.123 286.244L215.111 287.144ZM216.671 283.28C215.747 283.28 215.087 282.704 215.087 281.468C215.087 280.16 215.675 279.44 216.803 279.44C217.931 279.44 218.543 280.22 218.543 281.624C218.543 282.62 217.967 283.28 216.671 283.28ZM226.446 284.036H225.462V278.672H224.166L220.518 283.784V284.948H224.454V287H225.462V284.948H226.446V284.036ZM221.43 284.036V283.964L224.382 279.776H224.454V284.036H221.43Z" fill="white" fill-opacity="0.45"/>
<path d="M264.267 287H265.347V278.672H264.639L262.203 279.176V280.052L264.267 279.656V287ZM269.409 287.144C272.553 287.144 273.849 285.044 273.849 281.936C273.849 279.38 272.625 278.552 271.101 278.552C269.241 278.552 268.377 279.836 268.377 281.468C268.377 283.292 269.397 284.096 270.933 284.096C271.749 284.096 272.409 283.748 272.709 283.412H272.757C272.601 285.008 271.521 286.244 269.421 286.244L269.409 287.144ZM270.969 283.28C270.045 283.28 269.385 282.704 269.385 281.468C269.385 280.16 269.973 279.44 271.101 279.44C272.229 279.44 272.841 280.22 272.841 281.624C272.841 282.62 272.265 283.28 270.969 283.28ZM276.111 287.144C279.255 287.144 280.551 285.044 280.551 281.936C280.551 279.38 279.327 278.552 277.803 278.552C275.943 278.552 275.079 279.836 275.079 281.468C275.079 283.292 276.099 284.096 277.635 284.096C278.451 284.096 279.111 283.748 279.411 283.412H279.459C279.303 285.008 278.223 286.244 276.123 286.244L276.111 287.144ZM277.671 283.28C276.747 283.28 276.087 282.704 276.087 281.468C276.087 280.16 276.675 279.44 277.803 279.44C278.931 279.44 279.543 280.22 279.543 281.624C279.543 282.62 278.967 283.28 277.671 283.28ZM284.542 287.12C286.342 287.12 287.386 286.4 287.386 284.804C287.386 283.508 286.726 282.956 285.91 282.716V282.668C286.714 282.344 287.11 281.768 287.11 280.772C287.11 279.452 286.342 278.552 284.542 278.552C282.754 278.552 281.974 279.452 281.974 280.772C281.974 281.816 282.478 282.344 283.174 282.668V282.716C282.478 282.956 281.698 283.496 281.698 284.792C281.698 286.388 282.754 287.12 284.542 287.12ZM284.542 282.32C283.294 282.32 282.946 281.66 282.946 280.844C282.946 279.884 283.462 279.416 284.542 279.416C285.61 279.416 286.138 279.944 286.138 280.844C286.138 281.66 285.73 282.32 284.542 282.32ZM284.542 286.244C283.234 286.244 282.706 285.656 282.706 284.756C282.706 283.628 283.294 283.112 284.542 283.112C285.79 283.112 286.39 283.628 286.39 284.756C286.39 285.656 285.85 286.244 284.542 286.244Z" fill="white" fill-opacity="0.45"/>
<path d="M323.675 287H329.159V286.088H324.863V285.98L325.343 285.608C328.031 283.46 328.823 282.452 328.823 280.94C328.823 279.236 327.779 278.552 326.147 278.552C325.451 278.552 324.815 278.612 324.251 278.744V279.668C324.899 279.5 325.499 279.452 326.027 279.452C326.843 279.452 327.791 279.728 327.791 280.928C327.791 282.116 327.215 283.088 323.675 285.86V287ZM333.137 287.12C334.817 287.12 335.957 286.268 335.957 282.836C335.957 279.416 334.817 278.552 333.137 278.552C331.481 278.552 330.329 279.416 330.329 282.836C330.329 286.268 331.481 287.12 333.137 287.12ZM333.137 286.22C331.973 286.22 331.433 285.512 331.433 282.836C331.433 280.172 331.973 279.464 333.137 279.464C334.313 279.464 334.865 280.172 334.865 282.836C334.865 285.512 334.313 286.22 333.137 286.22ZM339.839 287.12C341.519 287.12 342.659 286.268 342.659 282.836C342.659 279.416 341.519 278.552 339.839 278.552C338.183 278.552 337.031 279.416 337.031 282.836C337.031 286.268 338.183 287.12 339.839 287.12ZM339.839 286.22C338.675 286.22 338.135 285.512 338.135 282.836C338.135 280.172 338.675 279.464 339.839 279.464C341.015 279.464 341.567 280.172 341.567 282.836C341.567 285.512 341.015 286.22 339.839 286.22ZM343.782 287H349.266V286.088H344.97V285.98L345.45 285.608C348.138 283.46 348.93 282.452 348.93 280.94C348.93 279.236 347.886 278.552 346.254 278.552C345.558 278.552 344.922 278.612 344.358 278.744V279.668C345.006 279.5 345.606 279.452 346.134 279.452C346.95 279.452 347.898 279.728 347.898 280.928C347.898 282.116 347.322 283.088 343.782 285.86V287Z" fill="white" fill-opacity="0.45"/>
<path d="M385.675 287H391.159V286.088H386.863V285.98L387.343 285.608C390.031 283.46 390.823 282.452 390.823 280.94C390.823 279.236 389.779 278.552 388.147 278.552C387.451 278.552 386.815 278.612 386.251 278.744V279.668C386.899 279.5 387.499 279.452 388.027 279.452C388.843 279.452 389.791 279.728 389.791 280.928C389.791 282.116 389.215 283.088 385.675 285.86V287ZM395.137 287.12C396.817 287.12 397.957 286.268 397.957 282.836C397.957 279.416 396.817 278.552 395.137 278.552C393.481 278.552 392.329 279.416 392.329 282.836C392.329 286.268 393.481 287.12 395.137 287.12ZM395.137 286.22C393.973 286.22 393.433 285.512 393.433 282.836C393.433 280.172 393.973 279.464 395.137 279.464C396.313 279.464 396.865 280.172 396.865 282.836C396.865 285.512 396.313 286.22 395.137 286.22ZM401.839 287.12C403.519 287.12 404.659 286.268 404.659 282.836C404.659 279.416 403.519 278.552 401.839 278.552C400.183 278.552 399.031 279.416 399.031 282.836C399.031 286.268 400.183 287.12 401.839 287.12ZM401.839 286.22C400.675 286.22 400.135 285.512 400.135 282.836C400.135 280.172 400.675 279.464 401.839 279.464C403.015 279.464 403.567 280.172 403.567 282.836C403.567 285.512 403.015 286.22 401.839 286.22ZM408.542 287.12C410.414 287.12 411.254 285.896 411.254 284.264C411.254 282.452 410.27 281.576 408.722 281.576C407.918 281.576 407.246 281.936 406.934 282.26H406.898C407.03 280.688 408.182 279.464 410.234 279.464L410.246 278.552C407.102 278.552 405.782 280.664 405.782 283.772C405.782 286.352 407.018 287.12 408.542 287.12ZM408.53 286.22C407.402 286.22 406.814 285.512 406.814 284.072C406.814 283.088 407.378 282.404 408.674 282.404C409.61 282.404 410.27 283.016 410.27 284.264C410.27 285.572 409.658 286.22 408.53 286.22Z" fill="white" fill-opacity="0.45"/>
<path d="M447.675 287H453.159V286.088H448.863V285.98L449.343 285.608C452.031 283.46 452.823 282.452 452.823 280.94C452.823 279.236 451.779 278.552 450.147 278.552C449.451 278.552 448.815 278.612 448.251 278.744V279.668C448.899 279.5 449.499 279.452 450.027 279.452C450.843 279.452 451.791 279.728 451.791 280.928C451.791 282.116 451.215 283.088 447.675 285.86V287ZM457.137 287.12C458.817 287.12 459.957 286.268 459.957 282.836C459.957 279.416 458.817 278.552 457.137 278.552C455.481 278.552 454.329 279.416 454.329 282.836C454.329 286.268 455.481 287.12 457.137 287.12ZM457.137 286.22C455.973 286.22 455.433 285.512 455.433 282.836C455.433 280.172 455.973 279.464 457.137 279.464C458.313 279.464 458.865 280.172 458.865 282.836C458.865 285.512 458.313 286.22 457.137 286.22ZM463.671 287H464.751V278.672H464.043L461.607 279.176V280.052L463.671 279.656V287ZM470.542 287.12C472.222 287.12 473.362 286.268 473.362 282.836C473.362 279.416 472.222 278.552 470.542 278.552C468.886 278.552 467.734 279.416 467.734 282.836C467.734 286.268 468.886 287.12 470.542 287.12ZM470.542 286.22C469.378 286.22 468.838 285.512 468.838 282.836C468.838 280.172 469.378 279.464 470.542 279.464C471.718 279.464 472.27 280.172 472.27 282.836C472.27 285.512 471.718 286.22 470.542 286.22Z" fill="white" fill-opacity="0.45"/>
<path d="M508.675 287H514.159V286.088H509.863V285.98L510.343 285.608C513.031 283.46 513.823 282.452 513.823 280.94C513.823 279.236 512.779 278.552 511.147 278.552C510.451 278.552 509.815 278.612 509.251 278.744V279.668C509.899 279.5 510.499 279.452 511.027 279.452C511.843 279.452 512.791 279.728 512.791 280.928C512.791 282.116 512.215 283.088 508.675 285.86V287ZM518.137 287.12C519.817 287.12 520.957 286.268 520.957 282.836C520.957 279.416 519.817 278.552 518.137 278.552C516.481 278.552 515.329 279.416 515.329 282.836C515.329 286.268 516.481 287.12 518.137 287.12ZM518.137 286.22C516.973 286.22 516.433 285.512 516.433 282.836C516.433 280.172 516.973 279.464 518.137 279.464C519.313 279.464 519.865 280.172 519.865 282.836C519.865 285.512 519.313 286.22 518.137 286.22ZM524.671 287H525.751V278.672H525.043L522.607 279.176V280.052L524.671 279.656V287ZM534.446 284.036H533.462V278.672H532.166L528.518 283.784V284.948H532.454V287H533.462V284.948H534.446V284.036ZM529.43 284.036V283.964L532.382 279.776H532.454V284.036H529.43Z" fill="white" fill-opacity="0.45"/>
<path d="M570.675 287H576.159V286.088H571.863V285.98L572.343 285.608C575.031 283.46 575.823 282.452 575.823 280.94C575.823 279.236 574.779 278.552 573.147 278.552C572.451 278.552 571.815 278.612 571.251 278.744V279.668C571.899 279.5 572.499 279.452 573.027 279.452C573.843 279.452 574.791 279.728 574.791 280.928C574.791 282.116 574.215 283.088 570.675 285.86V287ZM580.137 287.12C581.817 287.12 582.957 286.268 582.957 282.836C582.957 279.416 581.817 278.552 580.137 278.552C578.481 278.552 577.329 279.416 577.329 282.836C577.329 286.268 578.481 287.12 580.137 287.12ZM580.137 286.22C578.973 286.22 578.433 285.512 578.433 282.836C578.433 280.172 578.973 279.464 580.137 279.464C581.313 279.464 581.865 280.172 581.865 282.836C581.865 285.512 581.313 286.22 580.137 286.22ZM586.671 287H587.751V278.672H587.043L584.607 279.176V280.052L586.671 279.656V287ZM593.542 287.12C595.342 287.12 596.386 286.4 596.386 284.804C596.386 283.508 595.726 282.956 594.91 282.716V282.668C595.714 282.344 596.11 281.768 596.11 280.772C596.11 279.452 595.342 278.552 593.542 278.552C591.754 278.552 590.974 279.452 590.974 280.772C590.974 281.816 591.478 282.344 592.174 282.668V282.716C591.478 282.956 590.698 283.496 590.698 284.792C590.698 286.388 591.754 287.12 593.542 287.12ZM593.542 282.32C592.294 282.32 591.946 281.66 591.946 280.844C591.946 279.884 592.462 279.416 593.542 279.416C594.61 279.416 595.138 279.944 595.138 280.844C595.138 281.66 594.73 282.32 593.542 282.32ZM593.542 286.244C592.234 286.244 591.706 285.656 591.706 284.756C591.706 283.628 592.294 283.112 593.542 283.112C594.79 283.112 595.39 283.628 595.39 284.756C595.39 285.656 594.85 286.244 593.542 286.244Z" fill="white" fill-opacity="0.45"/>
<path d="M45 268.5H841" stroke="#416180" stroke-opacity="0.45" stroke-width="0.5" stroke-linecap="square"/>
<path d="M274.5 272V268" stroke="#416180" stroke-opacity="0.35" stroke-width="0.5" stroke-linecap="square"/>
<path d="M398.5 272V268" stroke="#416180" stroke-opacity="0.35" stroke-width="0.5" stroke-linecap="square"/>
<path d="M336.5 272V268" stroke="#416180" stroke-opacity="0.35" stroke-width="0.5" stroke-linecap="square"/>
<path d="M460.5 272V268" stroke="#416180" stroke-opacity="0.35" stroke-width="0.5" stroke-linecap="square"/>
<path d="M521.5 272V268" stroke="#416180" stroke-opacity="0.35" stroke-width="0.5" stroke-linecap="square"/>
<path d="M151 152.807C151 152.807 159.842 163.218 165 178.803C170.158 194.387 169.273 212.424 182.616 213.959C195.959 215.494 199.874 173.626 217.223 173.626C234.572 173.626 258.067 214.868 277.298 210.951C296.529 207.034 320 173.024 333.5 165.923C347 158.822 374.202 171.353 398 151.303C421.798 131.253 426.432 131.253 435.216 131.253C444 131.253 450.915 143.689 463.106 152.807C475.297 161.925 501.368 166.842 518.5 141.78C535.632 116.717 548.073 65.0201 559.036 61.5114C570 58.0027 575 73.6994 581 73.6994" stroke="#5B8FF9" stroke-width="2" stroke-linecap="round" stroke-linejoin="round"/>
<circle cx="151" cy="155" r="3" fill="#5B8FF9"/>
<circle cx="151" cy="155" r="3.5" stroke="white" stroke-opacity="0.85"/>
<circle cx="214" cy="175" r="3" fill="#5B8FF9"/>
<circle cx="214" cy="175" r="3.5" stroke="white" stroke-opacity="0.85"/>
<circle cx="277" cy="211" r="3" fill="#5B8FF9"/>
<circle cx="277" cy="211" r="3.5" stroke="white" stroke-opacity="0.85"/>
<circle cx="336" cy="165" r="3" fill="#5B8FF9"/>
<circle cx="336" cy="165" r="3.5" stroke="white" stroke-opacity="0.85"/>
<circle cx="398" cy="151" r="3" fill="#5B8FF9"/>
<circle cx="398" cy="151" r="3.5" stroke="white" stroke-opacity="0.85"/>
<circle cx="460" cy="151" r="3" fill="#5B8FF9"/>
<circle cx="460" cy="151" r="3.5" stroke="white" stroke-opacity="0.85"/>
<circle cx="521" cy="138" r="3" fill="#5B8FF9"/>
<circle cx="521" cy="138" r="3.5" stroke="white" stroke-opacity="0.85"/>
<circle cx="583" cy="74" r="3" fill="#5B8FF9"/>
<circle cx="583" cy="74" r="3.5" stroke="white" stroke-opacity="0.85"/>
</svg>
