<svg width="820" height="361" viewBox="0 0 820 361" fill="none" xmlns="http://www.w3.org/2000/svg">
<rect x="1" y="1" width="817.953" height="359" rx="9" fill="#27282C" stroke="white" stroke-width="2"/>
<path d="M0.691766 123.522H49.4919C55.0147 123.522 59.4919 128 59.4919 133.522V227.477C59.4919 233 55.0147 237.477 49.4919 237.477H0" stroke="white" stroke-width="2"/>
<path d="M1.2131 80.8984H94.3263C99.8492 80.8984 104.326 85.3756 104.326 90.8984V270.971C104.326 276.494 99.8492 280.971 94.3263 280.971H0" stroke="white" stroke-width="2"/>
<path d="M818.74 80.8984H725.627C720.104 80.8984 715.627 85.3756 715.627 90.8984V270.971C715.627 276.494 720.104 280.971 725.627 280.971H819.953" stroke="white" stroke-width="2"/>
<path d="M819.308 123.522H770.461C764.938 123.522 760.461 128 760.461 133.522V227.477C760.461 233 764.938 237.477 770.461 237.477H820" stroke="white" stroke-width="2"/>
<path d="M715.627 215.73C694.503 208.771 679.414 162.232 715.627 145.27" stroke="white" stroke-width="2"/>
<path d="M104.326 215.73C125.45 208.771 140.539 162.232 104.326 145.27" stroke="white" stroke-width="2"/>
<path d="M410.408 1.74023L410.408 360.131" stroke="white" stroke-width="2"/>
<path d="M473.21 174.411C473.21 209.658 444.891 238.217 409.976 238.217C375.061 238.217 346.742 209.658 346.742 174.411C346.742 139.163 375.061 110.604 409.976 110.604C444.891 110.604 473.21 139.163 473.21 174.411Z" stroke="white" stroke-width="2"/>
<ellipse cx="307.806" cy="159.188" rx="15.5196" ry="15.6578" fill="#D52121"/>
<path d="M302.363 165.099V153.739H304.603L308.187 160.299L311.787 153.739H313.947V165.099H311.643V157.915L309.003 162.731H307.307L304.667 157.915V165.099H302.363Z" fill="white"/>
<ellipse cx="431.101" cy="67.8502" rx="15.5196" ry="15.6578" fill="#D52121"/>
<path d="M425.657 73.7617V62.4017H427.897L431.481 68.9617L435.081 62.4017H437.241V73.7617H434.937V66.5777L432.297 71.3937H430.601L427.961 66.5777V73.7617H425.657Z" fill="white"/>
<ellipse cx="669.93" cy="212.251" rx="15.5196" ry="15.6578" fill="#D52121"/>
<path d="M664.487 218.161V206.801H666.727L670.311 213.361L673.911 206.801H676.071V218.161H673.767V210.977L671.127 215.793H669.431L666.791 210.977V218.161H664.487Z" fill="white"/>
<ellipse cx="644.927" cy="120.914" rx="15.5196" ry="15.6578" fill="#D52121"/>
<path d="M639.483 126.824V115.464H641.723L645.307 122.024L648.907 115.464H651.067V126.824H648.763V119.64L646.123 124.456H644.427L641.787 119.64V126.824H639.483Z" fill="white"/>
<ellipse cx="592.332" cy="43.4938" rx="15.5196" ry="15.6578" fill="#D52121"/>
<path d="M586.889 49.4053V38.0453H589.129L592.713 44.6053L596.313 38.0453H598.473V49.4053H596.169V42.2213L593.529 47.0373H591.833L589.193 42.2213V49.4053H586.889Z" fill="white"/>
<ellipse cx="318.152" cy="49.5836" rx="15.5196" ry="15.6578" fill="#D52121"/>
<path d="M312.709 55.4941V44.1341H314.949L318.533 50.6941L322.133 44.1341H324.293V55.4941H321.989V48.3101L319.349 53.1261H317.653L315.013 48.3101V55.4941H312.709Z" fill="white"/>
<ellipse cx="519.907" cy="258.354" rx="15.5196" ry="15.6578" fill="#D52121"/>
<path d="M514.464 264.265V252.905H516.704L520.288 259.465L523.888 252.905H526.048V264.265H523.744V257.081L521.104 261.897H519.408L516.768 257.081V264.265H514.464Z" fill="white"/>
<ellipse cx="450.931" cy="190.504" rx="15.5196" ry="15.6578" fill="#D52121"/>
<path d="M445.488 196.414V185.054H447.728L451.312 191.614L454.912 185.054H457.072V196.414H454.768V189.23L452.128 194.046H450.432L447.792 189.23V196.414H445.488Z" fill="white"/>
<ellipse cx="596.643" cy="319.246" rx="15.5196" ry="15.6578" fill="#D52121"/>
<path d="M591.2 325.156V313.796H593.44L597.024 320.356L600.624 313.796H602.784V325.156H600.48V317.972L597.84 322.788H596.144L593.504 317.972V325.156H591.2Z" fill="white"/>
<ellipse cx="328.498" cy="254.875" rx="15.5196" ry="15.6578" fill="#D52121"/>
<path d="M323.055 260.785V249.425H325.295L328.879 255.985L332.479 249.425H334.639V260.785H332.335V253.601L329.695 258.417H327.999L325.359 253.601V260.785H323.055Z" fill="white"/>
<ellipse cx="790.639" cy="180.935" rx="15.5196" ry="15.6578" fill="#D52121"/>
<path d="M785.195 186.846V175.486H787.435L791.019 182.046L794.619 175.486H796.779V186.846H794.475V179.662L791.835 184.478H790.139L787.499 179.662V186.846H785.195Z" fill="white"/>
<ellipse cx="259.523" cy="89.5973" rx="15.5196" ry="15.6578" fill="#5597FF"/>
<path d="M258.655 95.654C258.004 95.654 257.391 95.558 256.815 95.366C256.239 95.174 255.716 94.902 255.247 94.55C254.777 94.198 254.372 93.782 254.031 93.302C253.7 92.8113 253.444 92.2673 253.263 91.67C253.081 91.062 252.991 90.4167 252.991 89.734C252.991 89.0513 253.081 88.406 253.263 87.798C253.455 87.1793 253.721 86.6193 254.063 86.118C254.404 85.606 254.809 85.1687 255.279 84.806C255.748 84.4327 256.265 84.15 256.831 83.958C257.407 83.7553 258.015 83.654 258.655 83.654C259.241 83.654 259.796 83.734 260.319 83.894C260.841 84.054 261.316 84.2833 261.743 84.582C262.169 84.8807 262.537 85.238 262.847 85.654C263.167 86.07 263.407 86.5393 263.567 87.062L261.263 87.638C261.007 87.0727 260.649 86.6353 260.191 86.326C259.732 86.006 259.209 85.846 258.623 85.846C258.175 85.846 257.753 85.942 257.359 86.134C256.975 86.326 256.639 86.598 256.351 86.95C256.073 87.2913 255.855 87.6967 255.695 88.166C255.535 88.6353 255.455 89.1473 255.455 89.702C255.455 90.2567 255.529 90.7633 255.679 91.222C255.839 91.6807 256.063 92.0807 256.351 92.422C256.639 92.7527 256.975 93.0087 257.359 93.19C257.753 93.3713 258.185 93.462 258.655 93.462C259.263 93.462 259.796 93.3127 260.255 93.014C260.724 92.7047 261.097 92.2567 261.375 91.67L263.679 92.246C263.455 92.9393 263.097 93.542 262.607 94.054C262.127 94.566 261.551 94.9607 260.879 95.238C260.207 95.5153 259.465 95.654 258.655 95.654Z" fill="white"/>
<ellipse cx="535.427" cy="134.832" rx="15.5196" ry="15.6578" fill="#5597FF"/>
<path d="M534.559 140.888C533.908 140.888 533.295 140.792 532.719 140.6C532.143 140.408 531.62 140.136 531.151 139.784C530.682 139.432 530.276 139.016 529.935 138.536C529.604 138.046 529.348 137.502 529.167 136.904C528.986 136.296 528.895 135.651 528.895 134.968C528.895 134.286 528.986 133.64 529.167 133.032C529.359 132.414 529.626 131.854 529.967 131.352C530.308 130.84 530.714 130.403 531.183 130.04C531.652 129.667 532.17 129.384 532.735 129.192C533.311 128.99 533.919 128.888 534.559 128.888C535.146 128.888 535.7 128.968 536.223 129.128C536.746 129.288 537.22 129.518 537.647 129.816C538.074 130.115 538.442 130.472 538.751 130.888C539.071 131.304 539.311 131.774 539.471 132.296L537.167 132.872C536.911 132.307 536.554 131.87 536.095 131.56C535.636 131.24 535.114 131.08 534.527 131.08C534.079 131.08 533.658 131.176 533.263 131.368C532.879 131.56 532.543 131.832 532.255 132.184C531.978 132.526 531.759 132.931 531.599 133.4C531.439 133.87 531.359 134.382 531.359 134.936C531.359 135.491 531.434 135.998 531.583 136.456C531.743 136.915 531.967 137.315 532.255 137.656C532.543 137.987 532.879 138.243 533.263 138.424C533.658 138.606 534.09 138.696 534.559 138.696C535.167 138.696 535.7 138.547 536.159 138.248C536.628 137.939 537.002 137.491 537.279 136.904L539.583 137.48C539.359 138.174 539.002 138.776 538.511 139.288C538.031 139.8 537.455 140.195 536.783 140.472C536.111 140.75 535.37 140.888 534.559 140.888Z" fill="white"/>
<ellipse cx="371.608" cy="80.899" rx="15.5196" ry="15.6578" fill="#5597FF"/>
<path d="M370.741 86.9557C370.09 86.9557 369.477 86.8597 368.901 86.6677C368.325 86.4757 367.802 86.2037 367.333 85.8517C366.863 85.4997 366.458 85.0837 366.117 84.6037C365.786 84.1131 365.53 83.5691 365.349 82.9717C365.167 82.3637 365.077 81.7184 365.077 81.0357C365.077 80.3531 365.167 79.7077 365.349 79.0997C365.541 78.4811 365.807 77.9211 366.149 77.4197C366.49 76.9077 366.895 76.4704 367.365 76.1077C367.834 75.7344 368.351 75.4517 368.917 75.2597C369.493 75.0571 370.101 74.9557 370.741 74.9557C371.327 74.9557 371.882 75.0357 372.405 75.1957C372.927 75.3557 373.402 75.5851 373.829 75.8837C374.255 76.1824 374.623 76.5397 374.933 76.9557C375.253 77.3717 375.493 77.8411 375.653 78.3637L373.349 78.9397C373.093 78.3744 372.735 77.9371 372.277 77.6277C371.818 77.3077 371.295 77.1477 370.709 77.1477C370.261 77.1477 369.839 77.2437 369.445 77.4357C369.061 77.6277 368.725 77.8997 368.437 78.2517C368.159 78.5931 367.941 78.9984 367.781 79.4677C367.621 79.9371 367.541 80.4491 367.541 81.0037C367.541 81.5584 367.615 82.0651 367.765 82.5237C367.925 82.9824 368.149 83.3824 368.437 83.7237C368.725 84.0544 369.061 84.3104 369.445 84.4917C369.839 84.6731 370.271 84.7637 370.741 84.7637C371.349 84.7637 371.882 84.6144 372.341 84.3157C372.81 84.0064 373.183 83.5584 373.461 82.9717L375.765 83.5477C375.541 84.2411 375.183 84.8437 374.693 85.3557C374.213 85.8677 373.637 86.2624 372.965 86.5397C372.293 86.8171 371.551 86.9557 370.741 86.9557Z" fill="white"/>
<ellipse cx="214.688" cy="202.682" rx="15.5196" ry="15.6578" fill="#5597FF"/>
<path d="M213.821 208.739C213.17 208.739 212.557 208.643 211.981 208.451C211.405 208.259 210.882 207.987 210.413 207.635C209.943 207.283 209.538 206.867 209.197 206.387C208.866 205.896 208.61 205.352 208.429 204.755C208.247 204.147 208.157 203.502 208.157 202.819C208.157 202.136 208.247 201.491 208.429 200.883C208.621 200.264 208.887 199.704 209.229 199.203C209.57 198.691 209.975 198.254 210.445 197.891C210.914 197.518 211.431 197.235 211.997 197.043C212.573 196.84 213.181 196.739 213.821 196.739C214.407 196.739 214.962 196.819 215.485 196.979C216.007 197.139 216.482 197.368 216.909 197.667C217.335 197.966 217.703 198.323 218.013 198.739C218.333 199.155 218.573 199.624 218.733 200.147L216.429 200.723C216.173 200.158 215.815 199.72 215.357 199.411C214.898 199.091 214.375 198.931 213.789 198.931C213.341 198.931 212.919 199.027 212.525 199.219C212.141 199.411 211.805 199.683 211.517 200.035C211.239 200.376 211.021 200.782 210.861 201.251C210.701 201.72 210.621 202.232 210.621 202.787C210.621 203.342 210.695 203.848 210.845 204.307C211.005 204.766 211.229 205.166 211.517 205.507C211.805 205.838 212.141 206.094 212.525 206.275C212.919 206.456 213.351 206.547 213.821 206.547C214.429 206.547 214.962 206.398 215.421 206.099C215.89 205.79 216.263 205.342 216.541 204.755L218.845 205.331C218.621 206.024 218.263 206.627 217.773 207.139C217.293 207.651 216.717 208.046 216.045 208.323C215.373 208.6 214.631 208.739 213.821 208.739Z" fill="white"/>
<ellipse cx="524.218" cy="39.1442" rx="15.5196" ry="15.6578" fill="#5597FF"/>
<path d="M523.351 45.2009C522.7 45.2009 522.087 45.1049 521.511 44.9129C520.935 44.7209 520.412 44.4489 519.943 44.0969C519.474 43.7449 519.068 43.3289 518.727 42.8489C518.396 42.3582 518.14 41.8142 517.959 41.2169C517.778 40.6089 517.687 39.9635 517.687 39.2809C517.687 38.5982 517.778 37.9529 517.959 37.3449C518.151 36.7262 518.418 36.1662 518.759 35.6649C519.1 35.1529 519.506 34.7155 519.975 34.3529C520.444 33.9795 520.962 33.6969 521.527 33.5049C522.103 33.3022 522.711 33.2009 523.351 33.2009C523.938 33.2009 524.492 33.2809 525.015 33.4409C525.538 33.6009 526.012 33.8302 526.439 34.1289C526.866 34.4275 527.234 34.7849 527.543 35.2009C527.863 35.6169 528.103 36.0862 528.263 36.6089L525.959 37.1849C525.703 36.6195 525.346 36.1822 524.887 35.8729C524.428 35.5529 523.906 35.3929 523.319 35.3929C522.871 35.3929 522.45 35.4889 522.055 35.6809C521.671 35.8729 521.335 36.1449 521.047 36.4969C520.77 36.8382 520.551 37.2435 520.391 37.7129C520.231 38.1822 520.151 38.6942 520.151 39.2489C520.151 39.8035 520.226 40.3102 520.375 40.7689C520.535 41.2275 520.759 41.6275 521.047 41.9689C521.335 42.2995 521.671 42.5555 522.055 42.7369C522.45 42.9182 522.882 43.0089 523.351 43.0089C523.959 43.0089 524.492 42.8595 524.951 42.5609C525.42 42.2515 525.794 41.8035 526.071 41.2169L528.375 41.7929C528.151 42.4862 527.794 43.0889 527.303 43.6009C526.823 44.1129 526.247 44.5075 525.575 44.7849C524.903 45.0622 524.162 45.2009 523.351 45.2009Z" fill="white"/>
<ellipse cx="469.037" cy="308.807" rx="15.5196" ry="15.6578" fill="#5597FF"/>
<path d="M468.169 314.864C467.519 314.864 466.905 314.768 466.329 314.576C465.753 314.384 465.231 314.112 464.761 313.76C464.292 313.408 463.887 312.992 463.545 312.512C463.215 312.021 462.959 311.477 462.777 310.88C462.596 310.272 462.505 309.627 462.505 308.944C462.505 308.261 462.596 307.616 462.777 307.008C462.969 306.389 463.236 305.829 463.577 305.328C463.919 304.816 464.324 304.379 464.793 304.016C465.263 303.643 465.78 303.36 466.345 303.168C466.921 302.965 467.529 302.864 468.169 302.864C468.756 302.864 469.311 302.944 469.833 303.104C470.356 303.264 470.831 303.493 471.257 303.792C471.684 304.091 472.052 304.448 472.361 304.864C472.681 305.28 472.921 305.749 473.081 306.272L470.777 306.848C470.521 306.283 470.164 305.845 469.705 305.536C469.247 305.216 468.724 305.056 468.137 305.056C467.689 305.056 467.268 305.152 466.873 305.344C466.489 305.536 466.153 305.808 465.865 306.16C465.588 306.501 465.369 306.907 465.209 307.376C465.049 307.845 464.969 308.357 464.969 308.912C464.969 309.467 465.044 309.973 465.193 310.432C465.353 310.891 465.577 311.291 465.865 311.632C466.153 311.963 466.489 312.219 466.873 312.4C467.268 312.581 467.7 312.672 468.169 312.672C468.777 312.672 469.311 312.523 469.769 312.224C470.239 311.915 470.612 311.467 470.889 310.88L473.193 311.456C472.969 312.149 472.612 312.752 472.121 313.264C471.641 313.776 471.065 314.171 470.393 314.448C469.721 314.725 468.98 314.864 468.169 314.864Z" fill="white"/>
<ellipse cx="286.251" cy="319.246" rx="15.5196" ry="15.6578" fill="#5597FF"/>
<path d="M285.383 325.302C284.732 325.302 284.119 325.206 283.543 325.014C282.967 324.822 282.444 324.55 281.975 324.198C281.506 323.846 281.1 323.43 280.759 322.95C280.428 322.46 280.172 321.916 279.991 321.318C279.81 320.71 279.719 320.065 279.719 319.382C279.719 318.7 279.81 318.054 279.991 317.446C280.183 316.828 280.45 316.268 280.791 315.766C281.132 315.254 281.538 314.817 282.007 314.454C282.476 314.081 282.994 313.798 283.559 313.606C284.135 313.404 284.743 313.302 285.383 313.302C285.97 313.302 286.524 313.382 287.047 313.542C287.57 313.702 288.044 313.932 288.471 314.23C288.898 314.529 289.266 314.886 289.575 315.302C289.895 315.718 290.135 316.188 290.295 316.71L287.991 317.286C287.735 316.721 287.378 316.284 286.919 315.974C286.46 315.654 285.938 315.494 285.351 315.494C284.903 315.494 284.482 315.59 284.087 315.782C283.703 315.974 283.367 316.246 283.079 316.598C282.802 316.94 282.583 317.345 282.423 317.814C282.263 318.284 282.183 318.796 282.183 319.35C282.183 319.905 282.258 320.412 282.407 320.87C282.567 321.329 282.791 321.729 283.079 322.07C283.367 322.401 283.703 322.657 284.087 322.838C284.482 323.02 284.914 323.11 285.383 323.11C285.991 323.11 286.524 322.961 286.983 322.662C287.452 322.353 287.826 321.905 288.103 321.318L290.407 321.894C290.183 322.588 289.826 323.19 289.335 323.702C288.855 324.214 288.279 324.609 287.607 324.886C286.935 325.164 286.194 325.302 285.383 325.302Z" fill="white"/>
<ellipse cx="600.954" cy="237.477" rx="15.5196" ry="15.6578" fill="#5597FF"/>
<path d="M600.086 243.534C599.436 243.534 598.822 243.438 598.246 243.246C597.67 243.054 597.148 242.782 596.678 242.43C596.209 242.078 595.804 241.662 595.462 241.182C595.132 240.691 594.876 240.147 594.694 239.55C594.513 238.942 594.422 238.297 594.422 237.614C594.422 236.931 594.513 236.286 594.694 235.678C594.886 235.059 595.153 234.499 595.494 233.998C595.836 233.486 596.241 233.049 596.71 232.686C597.18 232.313 597.697 232.03 598.262 231.838C598.838 231.635 599.446 231.534 600.086 231.534C600.673 231.534 601.228 231.614 601.75 231.774C602.273 231.934 602.748 232.163 603.174 232.462C603.601 232.761 603.969 233.118 604.278 233.534C604.598 233.95 604.838 234.419 604.998 234.942L602.694 235.518C602.438 234.953 602.081 234.515 601.622 234.206C601.164 233.886 600.641 233.726 600.054 233.726C599.606 233.726 599.185 233.822 598.79 234.014C598.406 234.206 598.07 234.478 597.782 234.83C597.505 235.171 597.286 235.577 597.126 236.046C596.966 236.515 596.886 237.027 596.886 237.582C596.886 238.137 596.961 238.643 597.11 239.102C597.27 239.561 597.494 239.961 597.782 240.302C598.07 240.633 598.406 240.889 598.79 241.07C599.185 241.251 599.617 241.342 600.086 241.342C600.694 241.342 601.228 241.193 601.686 240.894C602.156 240.585 602.529 240.137 602.806 239.55L605.11 240.126C604.886 240.819 604.529 241.422 604.038 241.934C603.558 242.446 602.982 242.841 602.31 243.118C601.638 243.395 600.897 243.534 600.086 243.534Z" fill="white"/>
<ellipse cx="431.101" cy="196.592" rx="15.5196" ry="15.6578" fill="#5597FF"/>
<path d="M430.233 202.649C429.582 202.649 428.969 202.553 428.393 202.361C427.817 202.169 427.294 201.897 426.825 201.545C426.355 201.193 425.95 200.777 425.609 200.297C425.278 199.806 425.022 199.262 424.841 198.665C424.659 198.057 424.569 197.412 424.569 196.729C424.569 196.046 424.659 195.401 424.841 194.793C425.033 194.174 425.299 193.614 425.641 193.113C425.982 192.601 426.387 192.164 426.857 191.801C427.326 191.428 427.843 191.145 428.409 190.953C428.985 190.75 429.593 190.649 430.233 190.649C430.819 190.649 431.374 190.729 431.897 190.889C432.419 191.049 432.894 191.278 433.321 191.577C433.747 191.876 434.115 192.233 434.425 192.649C434.745 193.065 434.985 193.534 435.145 194.057L432.841 194.633C432.585 194.068 432.227 193.63 431.769 193.321C431.31 193.001 430.787 192.841 430.201 192.841C429.753 192.841 429.331 192.937 428.937 193.129C428.553 193.321 428.217 193.593 427.929 193.945C427.651 194.286 427.433 194.692 427.273 195.161C427.113 195.63 427.033 196.142 427.033 196.697C427.033 197.252 427.107 197.758 427.257 198.217C427.417 198.676 427.641 199.076 427.929 199.417C428.217 199.748 428.553 200.004 428.937 200.185C429.331 200.366 429.763 200.457 430.233 200.457C430.841 200.457 431.374 200.308 431.833 200.009C432.302 199.7 432.675 199.252 432.953 198.665L435.257 199.241C435.033 199.934 434.675 200.537 434.185 201.049C433.705 201.561 433.129 201.956 432.457 202.233C431.785 202.51 431.043 202.649 430.233 202.649Z" fill="white"/>
<ellipse cx="210.377" cy="39.1442" rx="15.5196" ry="15.6578" fill="#5597FF"/>
<path d="M209.509 45.2009C208.858 45.2009 208.245 45.1049 207.669 44.9129C207.093 44.7209 206.57 44.4489 206.101 44.0969C205.632 43.7449 205.226 43.3289 204.885 42.8489C204.554 42.3582 204.298 41.8142 204.117 41.2169C203.936 40.6089 203.845 39.9635 203.845 39.2809C203.845 38.5982 203.936 37.9529 204.117 37.3449C204.309 36.7262 204.576 36.1662 204.917 35.6649C205.258 35.1529 205.664 34.7155 206.133 34.3529C206.602 33.9795 207.12 33.6969 207.685 33.5049C208.261 33.3022 208.869 33.2009 209.509 33.2009C210.096 33.2009 210.65 33.2809 211.173 33.4409C211.696 33.6009 212.17 33.8302 212.597 34.1289C213.024 34.4275 213.392 34.7849 213.701 35.2009C214.021 35.6169 214.261 36.0862 214.421 36.6089L212.117 37.1849C211.861 36.6195 211.504 36.1822 211.045 35.8729C210.586 35.5529 210.064 35.3929 209.477 35.3929C209.029 35.3929 208.608 35.4889 208.213 35.6809C207.829 35.8729 207.493 36.1449 207.205 36.4969C206.928 36.8382 206.709 37.2435 206.549 37.7129C206.389 38.1822 206.309 38.6942 206.309 39.2489C206.309 39.8035 206.384 40.3102 206.533 40.7689C206.693 41.2275 206.917 41.6275 207.205 41.9689C207.493 42.2995 207.829 42.5555 208.213 42.7369C208.608 42.9182 209.04 43.0089 209.509 43.0089C210.117 43.0089 210.65 42.8595 211.109 42.5609C211.578 42.2515 211.952 41.8035 212.229 41.2169L214.533 41.7929C214.309 42.4862 213.952 43.0889 213.461 43.6009C212.981 44.1129 212.405 44.5075 211.733 44.7849C211.061 45.0622 210.32 45.2009 209.509 45.2009Z" fill="white"/>
<ellipse cx="30.1768" cy="180.935" rx="15.5196" ry="15.6578" fill="#5597FF"/>
<path d="M29.3089 186.992C28.6582 186.992 28.0449 186.896 27.4689 186.704C26.8929 186.512 26.3702 186.24 25.9009 185.888C25.4316 185.536 25.0262 185.12 24.6849 184.64C24.3542 184.149 24.0982 183.605 23.9169 183.008C23.7356 182.4 23.6449 181.755 23.6449 181.072C23.6449 180.389 23.7356 179.744 23.9169 179.136C24.1089 178.517 24.3756 177.957 24.7169 177.456C25.0582 176.944 25.4636 176.507 25.9329 176.144C26.4022 175.771 26.9196 175.488 27.4849 175.296C28.0609 175.093 28.6689 174.992 29.3089 174.992C29.8956 174.992 30.4502 175.072 30.9729 175.232C31.4956 175.392 31.9702 175.621 32.3969 175.92C32.8236 176.219 33.1916 176.576 33.5009 176.992C33.8209 177.408 34.0609 177.877 34.2209 178.4L31.9169 178.976C31.6609 178.411 31.3036 177.973 30.8449 177.664C30.3862 177.344 29.8636 177.184 29.2769 177.184C28.8289 177.184 28.4076 177.28 28.0129 177.472C27.6289 177.664 27.2929 177.936 27.0049 178.288C26.7276 178.629 26.5089 179.035 26.3489 179.504C26.1889 179.973 26.1089 180.485 26.1089 181.04C26.1089 181.595 26.1836 182.101 26.3329 182.56C26.4929 183.019 26.7169 183.419 27.0049 183.76C27.2929 184.091 27.6289 184.347 28.0129 184.528C28.4076 184.709 28.8396 184.8 29.3089 184.8C29.9169 184.8 30.4502 184.651 30.9089 184.352C31.3782 184.043 31.7516 183.595 32.0289 183.008L34.3329 183.584C34.1089 184.277 33.7516 184.88 33.2609 185.392C32.7809 185.904 32.2049 186.299 31.5329 186.576C30.8609 186.853 30.1196 186.992 29.3089 186.992Z" fill="white"/>
<path d="M401.354 158.948C405.29 158.948 408.459 155.732 408.459 151.794C408.459 147.855 405.29 144.64 401.354 144.64C397.418 144.64 394.25 147.855 394.25 151.794C394.25 155.732 397.418 158.948 401.354 158.948Z" fill="#811AFF" stroke="white" stroke-width="3"/>
</svg>
