<svg width="20" height="38" viewBox="0 0 20 38" fill="none" xmlns="http://www.w3.org/2000/svg">
<path d="M10 3.08331C5.85786 3.08331 2.5 6.44118 2.5 10.5833V20.5833C2.5 24.7254 5.85786 28.0833 10 28.0833C14.1421 28.0833 17.5 24.7254 17.5 20.5833V10.5833C17.5 6.44118 14.1421 3.08331 10 3.08331ZM10 0.583313C15.5228 0.583313 20 5.06047 20 10.5833V20.5833C20 26.1062 15.5228 30.5833 10 30.5833C4.47715 30.5833 0 26.1062 0 20.5833V10.5833C0 5.06047 4.47715 0.583313 10 0.583313Z" fill="white"/>
<path d="M8.75 8.08331C8.75 7.39296 9.30964 6.83331 10 6.83331C10.6904 6.83331 11.25 7.39296 11.25 8.08331V14.75C11.25 15.4403 10.6904 16 10 16C9.30964 16 8.75 15.4403 8.75 14.75V8.08331Z" fill="white"/>
<path d="M10.6202 37.5019C10.0208 37.8445 9.25721 37.6362 8.9147 37.0368C8.57218 36.4374 8.78043 35.6739 9.37983 35.3313L15.2132 31.998C15.8126 31.6555 16.5761 31.8637 16.9186 32.4631C17.2612 33.0625 17.0529 33.8261 16.4535 34.1686L10.6202 37.5019Z" fill="white"/>
<path d="M10.6202 35.3313C11.2196 35.6739 11.4278 36.4374 11.0853 37.0368C10.7428 37.6362 9.97922 37.8445 9.37982 37.5019L3.54649 34.1686C2.94709 33.8261 2.73885 33.0625 3.08136 32.4631C3.42387 31.8637 4.18744 31.6555 4.78684 31.998L10.6202 35.3313Z" fill="white"/>
</svg>
