<svg width="92" height="67" viewBox="0 0 92 67" fill="none" xmlns="http://www.w3.org/2000/svg">
<path d="M52.0467 3.64851L32.4916 19.443C32.0403 19.7439 31.5891 19.7439 31.1378 19.443L10.6801 3.79894C13.9894 2.29469 17.75 0.940878 20.4577 0.0383332C21.0594 -0.112091 21.8115 0.188757 22.1123 0.790454C23.767 4.55106 27.3772 7.10827 31.5891 7.10827C35.8009 7.10827 39.5615 4.55106 41.0658 0.790454C41.3666 0.188757 41.9683 -0.112091 42.57 0.0383332C45.1272 0.790454 48.7374 2.14427 52.0467 3.64851Z" fill="#575757"/>
<path d="M63.1781 26.8146C63.0277 26.2129 61.5235 18.6917 61.5235 18.3908C60.1696 9.66621 57.462 6.80815 57.462 6.65773C57.462 6.65773 57.462 6.65773 57.3116 6.5073C56.409 5.75518 55.0552 5.00306 53.7014 4.40137L32.4916 21.5497C32.0403 21.8506 31.5891 21.8506 31.1378 21.5497L9.02545 4.55179C7.82205 5.15349 6.76908 5.90561 5.86654 6.5073C5.86654 6.5073 5.86654 6.5073 5.71612 6.65773C5.56569 6.80815 3.00848 9.81663 1.65467 18.3908C1.65467 18.6917 0.150424 26.2129 0 26.8146C0 27.1154 0.150424 27.4163 0.300848 27.5667C0.601696 27.7171 6.31781 30.2743 11.5827 30.7256C11.8835 30.7256 12.1844 30.5752 12.1844 30.2743C12.3348 29.6726 12.6356 28.6196 12.9365 27.7171C13.3877 29.823 13.839 32.9819 14.2903 36.2913L30.9874 49.0773C31.4386 49.3782 31.8899 49.3782 32.3412 49.0773L48.7374 35.84C49.1887 32.6811 49.64 29.5222 50.0912 27.5667C50.3921 28.6196 50.6929 29.6726 50.8433 30.1239C50.9938 30.4247 51.1442 30.5752 51.445 30.5752C56.7099 30.1239 62.426 27.4163 62.7268 27.4163C63.0277 27.4163 63.1781 27.1154 63.1781 26.8146ZM31.1378 36.2913L6.01696 17.037H8.7246L31.1378 34.1853C31.5891 34.4862 32.0403 34.4862 32.4916 34.1853L54.4535 16.4353H57.1612L32.4916 36.2913C32.0403 36.5921 31.5891 36.5921 31.1378 36.2913Z" fill="#575757"/>
<path d="M49.7904 64.4199C49.7904 64.7207 49.4895 64.8712 49.3391 64.8712C49.1887 64.8712 41.517 65.9241 31.5891 66.0746C21.6611 65.9241 13.839 65.0216 13.839 64.8712C13.5382 64.8712 13.3877 64.5703 13.3877 64.4199C13.0869 62.4644 14.5911 48.7758 14.7416 46.9707C15.1928 45.0152 15.0424 41.8563 14.5911 38.5469L31.1378 51.1826C31.5891 51.4834 32.0403 51.4834 32.4916 51.1826L48.587 38.2461C48.1357 41.7058 47.9853 45.0152 48.4366 46.9707C48.4366 46.9707 48.4366 46.9707 48.4366 47.1211C48.587 48.7758 50.0912 62.4644 49.7904 64.4199Z" fill="#575757"/>
<path d="M59.2671 48.3249C58.3645 51.9351 57.3116 57.1999 57.0107 63.8186C57.0107 64.2699 56.5594 64.5707 56.1082 64.4203C55.6569 64.2699 55.0552 63.969 54.6039 63.6682C54.3031 63.5178 54.0022 63.0665 54.1527 62.7656C54.7543 58.4033 55.356 53.8906 56.1082 49.5283C56.2586 48.6258 56.5594 47.5728 56.7099 46.6703C56.8603 46.219 57.462 46.0686 57.7628 46.3694C58.0637 46.8207 58.515 47.272 58.9662 47.7232C59.2671 47.8736 59.4175 48.0241 59.2671 48.3249Z" fill="#575757"/>
<path d="M87.8477 43.3602C87.9981 43.5106 87.8477 43.8114 87.6972 43.9619C87.6972 43.9619 87.246 44.4131 86.6443 45.3157C86.3434 45.6165 85.7417 45.6165 85.5913 45.1653C85.14 43.5106 84.6888 42.6081 84.6888 42.4576C84.5383 42.0064 84.0871 41.8559 83.7862 42.1568C83.4854 42.3072 83.3349 42.9089 83.4854 43.2098C83.4854 43.2098 84.0871 44.714 84.8392 47.4216C84.9896 47.8729 85.14 48.4746 85.2905 49.0763C85.2905 49.2267 85.4409 49.5276 85.4409 49.8284C86.3434 53.4386 87.246 58.4026 87.3964 64.4196C87.3964 64.7204 87.246 65.0212 86.9451 65.0212C84.5383 65.6229 81.9811 65.6229 79.5743 65.9238C77.1676 66.2246 75.6633 65.6229 74.9112 63.0657C74.7608 62.464 74.3095 61.8623 74.0086 61.1102C73.8582 60.5085 73.407 60.3581 72.9557 60.3581H72.8053C72.2036 60.3581 71.9027 60.6589 71.7523 61.1102C71.4514 61.7119 71.0002 62.3136 70.8497 63.0657C70.248 65.4725 68.5934 66.2246 66.1866 65.9238C63.7798 65.6229 61.373 65.4725 58.8158 65.0212C58.515 65.0212 58.3645 64.7204 58.3645 64.4196C58.6654 58.4026 59.4175 53.4386 60.3201 49.8284C60.3201 49.5276 60.4705 49.3771 60.4705 49.0763C60.6209 48.4746 60.7713 47.8729 60.9218 47.4216C61.6739 44.714 62.2756 43.2098 62.2756 43.2098C62.426 42.7585 62.2756 42.3072 61.9747 42.1568C61.6739 42.0064 61.2226 42.1568 61.0722 42.4576C61.0722 42.6081 60.6209 43.5106 60.1696 45.1653C60.0192 45.6165 59.4175 45.767 59.1167 45.3157C58.3645 44.4131 58.0637 43.9619 58.0637 43.9619C57.9133 43.8114 57.9133 43.5106 57.9133 43.3602C58.515 41.8559 59.2671 40.5021 60.3201 39.1483C60.4705 38.8474 60.4705 38.3962 60.4705 38.0953C60.4705 37.6441 60.4705 37.0424 60.4705 36.5911C60.4705 35.9894 60.9218 35.3877 61.6739 35.3877H84.0871C84.6888 35.3877 85.2905 35.839 85.2905 36.5911C85.2905 37.0424 85.2905 37.6441 85.2905 38.0953C85.2905 38.5466 85.2905 38.9979 85.4409 39.1483C86.4939 40.5021 87.246 41.8559 87.8477 43.3602Z" fill="#575757"/>
<path d="M91.0066 63.5172C90.5553 63.818 90.104 63.9685 89.5023 64.2693C89.051 64.4197 88.5998 64.1189 88.5998 63.6676C88.2989 57.1994 87.246 51.9345 86.3434 48.3243C86.3434 48.1739 86.3434 47.8731 86.4938 47.7227C86.9451 47.121 87.3964 46.6697 87.6972 46.3688C87.9981 45.9176 88.5998 46.068 88.7502 46.6697C89.051 47.5722 89.2015 48.6252 89.3519 49.5277C90.2544 53.89 90.7057 58.2523 91.3074 62.7651C91.6083 62.9155 91.3074 63.3668 91.0066 63.5172Z" fill="#575757"/>
</svg>
