<svg width="108" height="108" viewBox="0 0 108 108" fill="none" xmlns="http://www.w3.org/2000/svg">
<g filter="url(#filter0_d)">
<circle cx="54" cy="50" r="26" fill="#131313"/>
<circle cx="54" cy="50" r="26" stroke="#FFC300" stroke-width="5"/>
</g>
<path d="M49.26 56V54.578C50.4 53.786 51.354 53.078 52.122 52.454C52.902 51.818 53.526 51.242 53.994 50.726C54.462 50.198 54.798 49.694 55.002 49.214C55.218 48.734 55.326 48.248 55.326 47.756C55.326 47.132 55.122 46.622 54.714 46.226C54.318 45.818 53.772 45.614 53.076 45.614C52.332 45.614 51.738 45.866 51.294 46.37C50.862 46.862 50.616 47.54 50.556 48.404L48.882 47.63C48.99 46.502 49.422 45.608 50.178 44.948C50.934 44.276 51.936 43.94 53.184 43.94C54.06 43.94 54.804 44.108 55.416 44.444C56.028 44.78 56.496 45.23 56.82 45.794C57.144 46.358 57.306 46.988 57.306 47.684C57.306 48.44 57.12 49.172 56.748 49.88C56.376 50.576 55.788 51.29 54.984 52.022C54.18 52.754 53.124 53.54 51.816 54.38V54.416C51.96 54.404 52.158 54.392 52.41 54.38C52.662 54.368 52.914 54.362 53.166 54.362C53.418 54.35 53.622 54.344 53.778 54.344H57.522V56H49.26Z" fill="white"/>
<defs>
<filter id="filter0_d" x="0.5" y="0.5" width="107" height="107" filterUnits="userSpaceOnUse" color-interpolation-filters="sRGB">
<feFlood flood-opacity="0" result="BackgroundImageFix"/>
<feColorMatrix in="SourceAlpha" type="matrix" values="0 0 0 0 0 0 0 0 0 0 0 0 0 0 0 0 0 0 127 0" result="hardAlpha"/>
<feOffset dy="4"/>
<feGaussianBlur stdDeviation="12.5"/>
<feColorMatrix type="matrix" values="0 0 0 0 0 0 0 0 0 0 0 0 0 0 0 0 0 0 0.08 0"/>
<feBlend mode="normal" in2="BackgroundImageFix" result="effect1_dropShadow"/>
<feBlend mode="normal" in="SourceGraphic" in2="effect1_dropShadow" result="shape"/>
</filter>
</defs>
</svg>
