<svg width="108" height="108" viewBox="0 0 108 108" fill="none" xmlns="http://www.w3.org/2000/svg">
<g filter="url(#filter0_d)">
<circle cx="54" cy="50" r="26" fill="#00BB4C"/>
<circle cx="54" cy="50" r="26" stroke="#D1FAE5" stroke-width="5"/>
</g>
<g clip-path="url(#clip0)">
<path d="M62.3841 43.8504L51.1562 55.0776C51.0807 55.1534 50.991 55.2135 50.8922 55.2545C50.7934 55.2956 50.6875 55.3167 50.5805 55.3167C50.4736 55.3167 50.3677 55.2956 50.2689 55.2545C50.1701 55.2135 50.0804 55.1534 50.0049 55.0776L45.6629 50.7315C45.5874 50.6557 45.4977 50.5956 45.3989 50.5545C45.3001 50.5135 45.1942 50.4924 45.0872 50.4924C44.9803 50.4924 44.8743 50.5135 44.7756 50.5545C44.6768 50.5956 44.5871 50.6557 44.5116 50.7315C44.4358 50.807 44.3756 50.8967 44.3346 50.9955C44.2936 51.0943 44.2725 51.2002 44.2725 51.3072C44.2725 51.4141 44.2936 51.52 44.3346 51.6188C44.3756 51.7176 44.4358 51.8073 44.5116 51.8828L48.8552 56.2256C49.3134 56.683 49.9344 56.9399 50.5818 56.9399C51.2292 56.9399 51.8501 56.683 52.3083 56.2256L63.5354 45.0009C63.6111 44.9255 63.6711 44.8358 63.7121 44.7371C63.7531 44.6384 63.7741 44.5326 63.7741 44.4257C63.7741 44.3188 63.7531 44.213 63.7121 44.1143C63.6711 44.0156 63.6111 43.9259 63.5354 43.8504C63.46 43.7747 63.3702 43.7145 63.2715 43.6735C63.1727 43.6325 63.0668 43.6113 62.9598 43.6113C62.8528 43.6113 62.7469 43.6325 62.6481 43.6735C62.5493 43.7145 62.4596 43.7747 62.3841 43.8504Z" fill="white"/>
</g>
<defs>
<filter id="filter0_d" x="0.5" y="0.5" width="107" height="107" filterUnits="userSpaceOnUse" color-interpolation-filters="sRGB">
<feFlood flood-opacity="0" result="BackgroundImageFix"/>
<feColorMatrix in="SourceAlpha" type="matrix" values="0 0 0 0 0 0 0 0 0 0 0 0 0 0 0 0 0 0 127 0" result="hardAlpha"/>
<feOffset dy="4"/>
<feGaussianBlur stdDeviation="12.5"/>
<feColorMatrix type="matrix" values="0 0 0 0 0 0 0 0 0 0 0 0 0 0 0 0 0 0 0.08 0"/>
<feBlend mode="normal" in2="BackgroundImageFix" result="effect1_dropShadow"/>
<feBlend mode="normal" in="SourceGraphic" in2="effect1_dropShadow" result="shape"/>
</filter>
<clipPath id="clip0">
<rect width="19.5" height="19.5" fill="white" transform="translate(44.25 40.25)"/>
</clipPath>
</defs>
</svg>
