<svg width="77" height="77" viewBox="0 0 77 77" fill="none" xmlns="http://www.w3.org/2000/svg">
<circle cx="38.5" cy="38.5" r="38.5" fill="#D1C2FB"/>
<path d="M39.3247 39.0926L39.3312 19.6591C39.3314 19.2926 39.0185 18.9887 38.6428 19.0003C27.4038 19.3476 18.3573 28.166 18.0003 39.1222C17.9884 39.4891 18.301 39.7943 18.6777 39.7933L38.6595 39.7426C39.0271 39.7417 39.3246 39.451 39.3247 39.0926Z" fill="#A257FF"/>
<path d="M42.782 21.9006C42.3736 21.8256 41.9938 22.1453 41.9944 22.5505L42.0192 41.6918C42.0197 42.0508 41.7215 42.3422 41.3532 42.3427L21.6315 42.3689C21.2173 42.3695 20.8907 42.7379 20.9662 43.1348C22.6612 52.049 31.0426 58.6918 40.8291 57.9424C49.8505 57.2516 57.2251 50.0664 57.9399 41.2723C58.7145 31.7411 51.9143 23.5803 42.782 21.9006Z" fill="#A257FF"/>
</svg>
