<svg width="16" height="15" viewBox="0 0 16 15" fill="none" xmlns="http://www.w3.org/2000/svg">
<path fill-rule="evenodd" clip-rule="evenodd" d="M0.854706 9.19036L9.4052 0.80878C10.5053 -0.269593 12.2896 -0.269593 13.3897 0.80878L14.5318 1.92829C15.6319 3.00666 15.6319 4.75575 14.5318 5.83412L5.9476 14.2488C5.45674 14.7299 4.79124 14.9999 4.0966 14.9999H0.581065C0.254483 14.9999 -0.00795462 14.7362 0.000184322 14.4161L0.088616 10.9389C0.106198 10.2817 0.380532 9.65517 0.854706 9.19036ZM13.7099 2.73377L12.5678 1.61426C11.9216 0.980756 10.8731 0.980756 10.2268 1.61426L9.56322 2.26472L13.0467 5.67867L13.7099 5.02857C14.3562 4.39507 14.3562 3.36727 13.7099 2.73377ZM1.67629 9.99584L8.74147 3.07023L12.225 6.48418L5.12569 13.4432L5.03126 13.528C4.77046 13.7421 4.44003 13.8607 4.09644 13.8607L1.17641 13.8603L1.2502 10.968C1.25996 10.6031 1.41272 10.2542 1.67629 9.99584ZM15.8826 14.4305C15.8826 14.1159 15.6225 13.8609 15.3016 13.8609H9.23938L9.16053 13.8661C8.87692 13.9038 8.65832 14.1421 8.65832 14.4305C8.65832 14.745 8.91847 15 9.23938 15H15.3016L15.3804 14.9948C15.664 14.9571 15.8826 14.7188 15.8826 14.4305Z" fill="white"/>
</svg>
