<svg width="67" height="70" viewBox="0 0 67 70" fill="none" xmlns="http://www.w3.org/2000/svg">
<path d="M56.8042 0H14.7369C13.9329 0 13.2804 0.652522 13.2804 1.45652C13.2804 2.26052 13.93 2.91304 14.7369 2.91304C19.1327 2.91304 23.0187 5.71539 24.4082 9.87813L24.6646 10.6559C24.8597 11.2531 25.419 11.658 26.0483 11.658L59.7172 11.6522C60.4921 11.6522 61.299 11.7687 62.2632 12.0192C62.3856 12.0513 62.5079 12.0658 62.6303 12.0658C62.9478 12.0658 63.2653 11.961 63.5217 11.7629C63.88 11.4861 64.0868 11.0608 64.0868 10.6093V7.28261C64.0868 3.26843 60.8213 0 56.8042 0Z" fill="#575757"/>
<path d="M59.7174 14.5653H26.0455C24.1637 14.5653 22.4974 13.3651 21.9032 11.5794L21.6468 10.8046C20.6506 7.82743 17.8744 5.82617 14.7371 5.82617H7.28261C3.26552 5.82617 0 9.09461 0 13.1088V48.0653C0 52.0795 3.26552 55.3479 7.28261 55.3479H13.1087C13.9127 55.3479 14.5652 54.6954 14.5652 53.8914C14.5652 43.451 23.0597 34.9566 33.5 34.9566C43.9403 34.9566 52.4348 43.451 52.4348 53.8914C52.4348 54.6954 53.0873 55.3479 53.8913 55.3479H59.7174C63.7345 55.3479 67 52.0795 67 48.0653V21.8479C67 17.8337 63.7345 14.5653 59.7174 14.5653Z" fill="#575757"/>
<path d="M33.5 37.8691C24.6677 37.8691 17.4783 45.0556 17.4783 53.8909C17.4783 62.7261 24.6677 69.9126 33.5 69.9126C42.3324 69.9126 49.5218 62.7261 49.5218 53.8909C49.5218 45.0556 42.3324 37.8691 33.5 37.8691ZM40.133 55.1027L31.3939 60.9288C31.1492 61.0919 30.8695 61.1735 30.587 61.1735C30.351 61.1735 30.1151 61.1152 29.8995 61.0016C29.4276 60.7482 29.1304 60.2559 29.1304 59.717V48.0648C29.1304 47.5259 29.4276 47.0336 29.8995 46.7801C30.3743 46.5296 30.9424 46.5558 31.3968 46.853L40.1359 52.6791C40.5379 52.95 40.7826 53.4044 40.7826 53.8909C40.7826 54.3774 40.5379 54.8318 40.133 55.1027Z" fill="#575757"/>
</svg>
