<svg width="26" height="20" viewBox="0 0 26 20" fill="none" xmlns="http://www.w3.org/2000/svg">
<mask id="mask0" mask-type="alpha" maskUnits="userSpaceOnUse" x="0" y="0" width="26" height="20">
<rect width="25.6833" height="19.9859" rx="3" fill="#C4C4C4"/>
</mask>
<g mask="url(#mask0)">
<rect width="25.6833" height="19.9859" rx="3" fill="#C4C4C4"/>
</g>
<path d="M6.95357 2.85352C6.23201 2.85352 5.64737 3.45813 5.64737 4.19702V5.72821C5.25842 5.96149 4.99414 6.39002 4.99414 6.88429V15.6177C4.99414 16.3566 5.57903 16.9612 6.30035 16.9612H19.3632C20.085 16.9612 20.6694 16.3566 20.6694 15.6177V6.88429C20.6694 6.39002 20.4053 5.96175 20.0161 5.72821V5.54053C20.0161 4.80164 19.4315 4.19702 18.7099 4.19702H13.4849L11.5254 2.85352H6.95357ZM6.95357 4.8689H18.7102C19.2405 4.8689 19.6943 5.1964 19.8991 5.66271C19.7352 5.58638 19.5547 5.54078 19.3632 5.54078H6.30035C6.10906 5.54078 5.9283 5.58638 5.76444 5.66271C5.9692 5.1964 6.4233 4.8689 6.95333 4.8689H6.95357Z" fill="#131313"/>
</svg>
