<svg width="25" height="25" viewBox="0 0 25 25" fill="none" xmlns="http://www.w3.org/2000/svg">
<path d="M6.81818 12.5C6.81818 12.8014 6.93791 13.0904 7.15102 13.3035C7.36412 13.5166 7.65316 13.6364 7.95455 13.6364H13.6364V21.5909C13.6337 22.4942 13.2736 23.3598 12.6349 23.9985C11.9961 24.6373 11.1306 24.9973 10.2273 25H3.40909C2.50494 25 1.63783 24.6408 0.9985 24.0015C0.359171 23.3622 0 22.4951 0 21.5909V3.40909C0 2.50494 0.359171 1.63783 0.9985 0.9985C1.63783 0.359171 2.50494 0 3.40909 0H10.2273C11.1306 0.00269783 11.9961 0.362735 12.6349 1.00148C13.2736 1.64022 13.6337 2.50577 13.6364 3.40909V11.3636H7.95455C7.65316 11.3636 7.36412 11.4834 7.15102 11.6965C6.93791 11.9096 6.81818 12.1986 6.81818 12.5Z" fill="#AAAAAA"/>
<path d="M24.9125 12.9319C24.9406 12.8472 24.9585 12.7595 24.9659 12.6706C24.9818 12.6147 24.9932 12.5577 25 12.5001C24.9932 12.4425 24.9818 12.3855 24.9659 12.3296C24.9523 12.0894 24.8455 11.8639 24.6682 11.7012L17.85 4.88305C17.7452 4.77452 17.6198 4.68795 17.4811 4.62839C17.3425 4.56883 17.1934 4.53749 17.0425 4.53618C16.8916 4.53486 16.742 4.56362 16.6023 4.62075C16.4627 4.67789 16.3358 4.76227 16.2291 4.86897C16.1224 4.97566 16.038 5.10254 15.9809 5.24219C15.9237 5.38185 15.895 5.53148 15.8963 5.68237C15.8976 5.83326 15.929 5.98237 15.9885 6.12101C16.0481 6.25965 16.1346 6.38504 16.2432 6.48987L21.1193 11.3637H13.6364V13.6365H21.1193L16.2409 18.5149C16.1324 18.6197 16.0458 18.7451 15.9862 18.8837C15.9267 19.0224 15.8953 19.1715 15.894 19.3224C15.8927 19.4733 15.9215 19.6229 15.9786 19.7625C16.0357 19.9022 16.1201 20.0291 16.2268 20.1358C16.3335 20.2425 16.4604 20.3268 16.6 20.384C16.7397 20.4411 16.8893 20.4699 17.0402 20.4686C17.1911 20.4673 17.3402 20.4359 17.4789 20.3763C17.6175 20.3168 17.7429 20.2302 17.8477 20.1217L24.6659 13.3035C24.7718 13.1971 24.8556 13.0708 24.9125 12.9319Z" fill="#AAAAAA"/>
</svg>
