<svg width="165" height="35" viewBox="0 0 165 35" fill="none" xmlns="http://www.w3.org/2000/svg">
<path d="M54.754 27.264C53.6247 27.264 52.6273 27.0733 51.762 26.692C50.8967 26.296 50.2147 25.7387 49.716 25.02C49.2173 24.2867 48.9607 23.3993 48.946 22.358H51.916C51.9453 23.0767 52.202 23.6853 52.686 24.184C53.1847 24.668 53.8667 24.91 54.732 24.91C55.48 24.91 56.074 24.734 56.514 24.382C56.954 24.0153 57.174 23.5313 57.174 22.93C57.174 22.2993 56.976 21.808 56.58 21.456C56.1987 21.104 55.6853 20.818 55.04 20.598C54.3947 20.378 53.7053 20.1433 52.972 19.894C51.784 19.4833 50.8747 18.9553 50.244 18.31C49.628 17.6647 49.32 16.8067 49.32 15.736C49.3053 14.8267 49.518 14.0493 49.958 13.404C50.4127 12.744 51.0287 12.238 51.806 11.886C52.5833 11.5193 53.478 11.336 54.49 11.336C55.5167 11.336 56.4187 11.5193 57.196 11.886C57.988 12.2527 58.604 12.766 59.044 13.426C59.4987 14.086 59.7407 14.8707 59.77 15.78H56.756C56.7413 15.2373 56.5287 14.7607 56.118 14.35C55.722 13.9247 55.1647 13.712 54.446 13.712C53.83 13.6973 53.3093 13.8513 52.884 14.174C52.4733 14.482 52.268 14.9367 52.268 15.538C52.268 16.0513 52.4293 16.462 52.752 16.77C53.0747 17.0633 53.5147 17.3127 54.072 17.518C54.6293 17.7233 55.2673 17.9433 55.986 18.178C56.7487 18.442 57.4453 18.75 58.076 19.102C58.7067 19.454 59.2127 19.9233 59.594 20.51C59.9753 21.082 60.166 21.8227 60.166 22.732C60.166 23.5387 59.9607 24.2867 59.55 24.976C59.1393 25.6653 58.5307 26.2227 57.724 26.648C56.9173 27.0587 55.9273 27.264 54.754 27.264ZM69.839 27.264C68.299 27.264 66.9496 26.9267 65.791 26.252C64.647 25.5773 63.745 24.646 63.085 23.458C62.4396 22.2553 62.117 20.8693 62.117 19.3C62.117 17.7307 62.4396 16.352 63.085 15.164C63.745 13.9613 64.647 13.0227 65.791 12.348C66.9496 11.6733 68.299 11.336 69.839 11.336C71.3643 11.336 72.7063 11.6733 73.865 12.348C75.0236 13.0227 75.9256 13.9613 76.571 15.164C77.2163 16.352 77.539 17.7307 77.539 19.3C77.539 20.8693 77.2163 22.2553 76.571 23.458C75.9256 24.646 75.0236 25.5773 73.865 26.252C72.7063 26.9267 71.3643 27.264 69.839 27.264ZM69.839 24.734C71.3056 24.734 72.4716 24.25 73.337 23.282C74.217 22.314 74.657 20.9867 74.657 19.3C74.657 17.6133 74.217 16.286 73.337 15.318C72.4716 14.35 71.3056 13.866 69.839 13.866C68.3723 13.866 67.199 14.35 66.319 15.318C65.439 16.286 64.999 17.6133 64.999 19.3C64.999 20.9867 65.439 22.314 66.319 23.282C67.199 24.25 68.3723 24.734 69.839 24.734ZM80.0253 27V11.6H82.8413L90.0793 22.446V11.6H92.8953V27H90.0793L82.8413 16.176V27H80.0253ZM94.8908 27L100.523 11.6H103.691L109.323 27H106.331L105.099 23.436H99.0928L97.8388 27H94.8908ZM99.8628 21.236H104.329L102.085 14.834L99.8628 21.236ZM111.307 27V11.6H114.123V24.8H120.943V27H111.307ZM125.214 27V21.522L120.044 11.6H123.234L126.644 18.706L130.032 11.6H133.178L128.03 21.522V27H125.214ZM139.359 27.264C138.23 27.264 137.233 27.0733 136.367 26.692C135.502 26.296 134.82 25.7387 134.321 25.02C133.823 24.2867 133.566 23.3993 133.551 22.358H136.521C136.551 23.0767 136.807 23.6853 137.291 24.184C137.79 24.668 138.472 24.91 139.337 24.91C140.085 24.91 140.679 24.734 141.119 24.382C141.559 24.0153 141.779 23.5313 141.779 22.93C141.779 22.2993 141.581 21.808 141.185 21.456C140.804 21.104 140.291 20.818 139.645 20.598C139 20.378 138.311 20.1433 137.577 19.894C136.389 19.4833 135.48 18.9553 134.849 18.31C134.233 17.6647 133.925 16.8067 133.925 15.736C133.911 14.8267 134.123 14.0493 134.563 13.404C135.018 12.744 135.634 12.238 136.411 11.886C137.189 11.5193 138.083 11.336 139.095 11.336C140.122 11.336 141.024 11.5193 141.801 11.886C142.593 12.2527 143.209 12.766 143.649 13.426C144.104 14.086 144.346 14.8707 144.375 15.78H141.361C141.347 15.2373 141.134 14.7607 140.723 14.35C140.327 13.9247 139.77 13.712 139.051 13.712C138.435 13.6973 137.915 13.8513 137.489 14.174C137.079 14.482 136.873 14.9367 136.873 15.538C136.873 16.0513 137.035 16.462 137.357 16.77C137.68 17.0633 138.12 17.3127 138.677 17.518C139.235 17.7233 139.873 17.9433 140.591 18.178C141.354 18.442 142.051 18.75 142.681 19.102C143.312 19.454 143.818 19.9233 144.199 20.51C144.581 21.082 144.771 21.8227 144.771 22.732C144.771 23.5387 144.566 24.2867 144.155 24.976C143.745 25.6653 143.136 26.2227 142.329 26.648C141.523 27.0587 140.533 27.264 139.359 27.264ZM147.228 27V11.6H150.044V27H147.228ZM158.287 27.264C157.158 27.264 156.161 27.0733 155.295 26.692C154.43 26.296 153.748 25.7387 153.249 25.02C152.751 24.2867 152.494 23.3993 152.479 22.358H155.449C155.479 23.0767 155.735 23.6853 156.219 24.184C156.718 24.668 157.4 24.91 158.265 24.91C159.013 24.91 159.607 24.734 160.047 24.382C160.487 24.0153 160.707 23.5313 160.707 22.93C160.707 22.2993 160.509 21.808 160.113 21.456C159.732 21.104 159.219 20.818 158.573 20.598C157.928 20.378 157.239 20.1433 156.505 19.894C155.317 19.4833 154.408 18.9553 153.777 18.31C153.161 17.6647 152.853 16.8067 152.853 15.736C152.839 14.8267 153.051 14.0493 153.491 13.404C153.946 12.744 154.562 12.238 155.339 11.886C156.117 11.5193 157.011 11.336 158.023 11.336C159.05 11.336 159.952 11.5193 160.729 11.886C161.521 12.2527 162.137 12.766 162.577 13.426C163.032 14.086 163.274 14.8707 163.303 15.78H160.289C160.275 15.2373 160.062 14.7607 159.651 14.35C159.255 13.9247 158.698 13.712 157.979 13.712C157.363 13.6973 156.843 13.8513 156.417 14.174C156.007 14.482 155.801 14.9367 155.801 15.538C155.801 16.0513 155.963 16.462 156.285 16.77C156.608 17.0633 157.048 17.3127 157.605 17.518C158.163 17.7233 158.801 17.9433 159.519 18.178C160.282 18.442 160.979 18.75 161.609 19.102C162.24 19.454 162.746 19.9233 163.127 20.51C163.509 21.082 163.699 21.8227 163.699 22.732C163.699 23.5387 163.494 24.2867 163.083 24.976C162.673 25.6653 162.064 26.2227 161.257 26.648C160.451 27.0587 159.461 27.264 158.287 27.264Z" fill="white"/>
<path d="M14.978 19.618H16.5674L16.9197 17.1414L14.978 19.618Z" fill="white"/>
<path d="M14.218 7.36105L14.2089 7.35975C14.0075 7.3292 13.8014 7.3132 13.5916 7.3132C11.5429 7.3132 9.84027 8.82299 9.53778 10.7884L9.53648 10.7975C9.50593 10.9989 9.48993 11.205 9.48993 11.4149C9.48993 13.4635 10.9998 15.1662 12.9651 15.4687L12.9742 15.47C13.1756 15.5005 13.3817 15.5165 13.5916 15.5165C13.9754 15.5164 14.3465 15.4623 14.699 15.3633L14.8283 15.3256C16.2941 14.861 17.4061 13.5938 17.6453 12.0422L17.647 12.03C17.6773 11.8293 17.6932 11.6239 17.6932 11.4149C17.6932 9.36618 16.1834 7.66355 14.218 7.36105ZM14.617 12.4402H12.5663V10.3895H14.617V12.4402Z" fill="white"/>
<path d="M7.45364 19.618H12.3727L13.8353 17.7525L7.45364 19.618Z" fill="white"/>
<path d="M19.338 14.7101L18.6397 19.618H21.3112L19.338 14.7101Z" fill="white"/>
<path d="M20.1106 11.1356L23.521 19.618H31.5854L20.1106 11.1356Z" fill="white"/>
<path d="M0.0905766 15.7083C0.0308302 16.2998 0 16.8976 0 17.5002C0 18.2136 0.0429299 18.9205 0.126534 19.618H0.144034L9.12295 16.9933L0.0905766 15.7083Z" fill="white"/>
<path d="M6.23438 4.10869L7.84698 8.11962L8.66231 2.38882C7.81137 2.88847 6.99946 3.46289 6.23438 4.10869Z" fill="white"/>
<path d="M0.497803 21.6688C1.24716 24.7494 2.82675 27.5756 5.12576 29.8746C8.43109 33.1799 12.8257 35.0002 17.5002 35.0002C22.1746 35.0002 26.5692 33.1799 29.8746 29.8746C32.1736 27.5756 33.7532 24.7494 34.5026 21.6688H0.497803ZM22.4323 31.4096H22.4322H12.5667V29.3588H22.4323V31.4096ZM27.524 27.308H7.47631V25.2572H27.524V27.308Z" fill="white"/>
<path d="M17.5002 6.10352e-05C17.4427 6.10352e-05 17.3854 0.00156495 17.328 0.00218019L13.573 4.79146L23.1662 0.934538C21.366 0.320531 19.4578 6.10352e-05 17.5002 6.10352e-05Z" fill="white"/>
<path d="M10.8897 1.2872L10.2636 5.68834L14.527 0.250458C13.2738 0.463672 12.0557 0.811896 10.8897 1.2872Z" fill="white"/>
<path d="M33.3605 10.0845L19.464 8.10739L34.8857 19.5074C34.9608 18.8457 35 18.176 35 17.5002C35 14.8945 34.4337 12.376 33.3605 10.0845Z" fill="white"/>
<path d="M29.8745 5.12568C28.6521 3.90327 27.2804 2.88471 25.801 2.08545L16.8873 5.66934L32.0935 7.83273C31.4525 6.8694 30.7113 5.96254 29.8745 5.12568Z" fill="white"/>
<path d="M4.63739 5.63544C3.92234 6.40913 3.28393 7.23635 2.72714 8.10842L6.96873 11.4339L4.63739 5.63544Z" fill="white"/>
<path d="M1.71703 9.92227C1.14124 11.1193 0.704348 12.3794 0.415802 13.6831L7.86578 14.743L1.71703 9.92227Z" fill="white"/>
</svg>
