<svg width="19" height="23" viewBox="0 0 19 23" fill="none" xmlns="http://www.w3.org/2000/svg">
<path d="M17.9254 15.6445C16.5269 14.4623 15.7249 12.7344 15.7249 10.9038V8.32494C15.7249 5.06996 13.307 2.37543 10.175 1.92406V0.924937C10.175 0.413436 9.76054 0 9.24988 0C8.7394 0 8.32494 0.413436 8.32494 0.924937V1.92406C5.19191 2.37543 2.77498 5.06996 2.77498 8.32494V10.9038C2.77498 12.7344 1.97301 14.4623 0.566039 15.6518C0.206294 15.9599 0 16.4075 0 16.8811C0 17.7738 0.726095 18.4999 1.61868 18.4999H16.8811C17.7738 18.4999 18.4999 17.7738 18.4999 16.8811C18.4999 16.4075 18.2936 15.9599 17.9254 15.6445Z" fill="#818181"/>
<path d="M9.24988 22.1998C10.9251 22.1998 12.3265 21.0055 12.6483 19.4248H5.85144C6.17342 21.0055 7.57479 22.1998 9.24988 22.1998Z" fill="#818181"/>
</svg>
