<svg width="25" height="25" viewBox="0 0 25 25" fill="none" xmlns="http://www.w3.org/2000/svg">
<path d="M14.2123 11.6374C14.1458 11.5697 14.056 11.5322 13.9638 11.5322H11.0378C10.9448 11.5322 10.8557 11.5697 10.7893 11.6374L9.84625 12.5918C9.71968 12.7198 9.70171 12.9235 9.8025 13.0735L10.9729 14.8169C11.0401 14.9155 11.1495 14.9758 11.2659 14.9758H13.7364C13.8529 14.9758 13.963 14.9155 14.0294 14.8169L15.1998 13.0735C15.3006 12.9235 15.2819 12.7198 15.1561 12.5918L14.2123 11.6374Z" fill="#AAAAAA"/>
<path d="M23.8139 14.9752C22.8747 13.9613 17.2414 12.1689 17.2414 12.1689L14.735 18.8744L14.0802 16.0486C14.0412 15.8815 13.8974 15.7634 13.7325 15.7634H11.2675C11.1026 15.7634 10.9589 15.8815 10.9198 16.0486L10.265 18.8744L7.75858 12.1689C7.75858 12.1689 2.12527 13.9613 1.18613 14.9752C0.430595 15.7911 0.100097 18.8068 8.8591e-05 22.3539C-0.0241323 23.2122 4.92005 24.9996 12.4996 24.9996C20.0792 24.9996 25.0234 23.2122 24.9991 22.3539C24.8999 18.8068 24.5702 15.7911 23.8139 14.9752ZM20.3409 22.4525H16.5851V21.0816H20.3409V22.4525ZM0.000869899 22.3539C-0.023351 23.2122 4.92083 24.9996 12.5004 24.9996C19.3963 24.9996 25.0241 23.2122 24.9999 22.3539" fill="#AAAAAA"/>
<path d="M6.4889 9.62176C7.87183 9.62176 9.08522 8.86457 9.77981 7.73164C9.93608 7.52135 10.8893 7.13339 12.5004 7.13339C14.1114 7.13339 15.0646 7.52217 15.2209 7.73164C15.9155 8.86539 17.1289 9.62176 18.5118 9.62176C20.6644 9.62176 22.4161 7.79521 22.4161 5.54891C22.4161 3.36619 20.7605 1.58529 18.6915 1.48667C18.0891 1.10603 16.246 0 15.1936 0C14.4716 0 14.1404 0.459693 13.8974 0.796312C13.6231 1.17694 13.4067 1.4777 12.4988 1.4777C11.5909 1.4777 11.3745 1.17694 11.1002 0.796312C10.8573 0.460508 10.526 0 9.80403 0C8.7516 0 6.90769 1.10603 6.30607 1.48667C4.23949 1.58447 2.58466 3.36619 2.58466 5.54891C2.58466 7.79521 4.33559 9.62176 6.4889 9.62176ZM18.5118 2.69947C20.0182 2.69947 21.2433 3.97748 21.2433 5.54891C21.2433 7.12035 20.0182 8.39836 18.5118 8.39836C17.0054 8.39836 15.7796 7.12035 15.7796 5.54891C15.7796 3.97748 17.0062 2.69947 18.5118 2.69947ZM6.4889 2.69947C7.99528 2.69947 9.22117 3.97748 9.22117 5.54891C9.22117 7.12035 7.99528 8.39836 6.4889 8.39836C4.98252 8.39836 3.75741 7.12035 3.75741 5.54891C3.75741 3.97748 4.98174 2.69947 6.4889 2.69947Z" fill="#AAAAAA"/>
<path d="M4.6981 6.22912C4.90672 6.22912 5.08017 6.05714 5.08798 5.83789C5.14267 4.37323 6.25605 4.04151 6.30918 4.02521C6.51701 3.96978 6.6428 3.7489 6.58967 3.5321C6.53811 3.31284 6.32559 3.18243 6.1162 3.23541C5.51771 3.39272 4.36995 4.13279 4.30744 5.80529C4.29885 6.03025 4.46683 6.22016 4.68248 6.22831C4.68795 6.22912 4.69263 6.22912 4.6981 6.22912Z" fill="#AAAAAA"/>
<path d="M16.7132 6.22929C16.9219 6.22929 17.0953 6.05731 17.1031 5.83806C17.1578 4.3734 18.2712 4.04167 18.3243 4.02537C18.5321 3.96995 18.6579 3.74906 18.6048 3.53226C18.5525 3.31382 18.3392 3.18341 18.1306 3.23639C17.5328 3.3937 16.3851 4.13459 16.3226 5.80627C16.314 6.03123 16.482 6.22114 16.6976 6.22929C16.7031 6.22929 16.7078 6.22929 16.7132 6.22929Z" fill="#AAAAAA"/>
</svg>
