<svg width="77" height="77" viewBox="0 0 77 77" fill="none" xmlns="http://www.w3.org/2000/svg">
<circle cx="38.5" cy="38.5" r="38.5" fill="#D1C2FB"/>
<path d="M41.7396 37.6206C41.6334 37.5124 41.4896 37.4524 41.3421 37.4524H36.6604C36.5117 37.4524 36.3691 37.5124 36.2629 37.6206L34.754 39.1477C34.5515 39.3525 34.5227 39.6785 34.684 39.9184L36.5567 42.7079C36.6642 42.8657 36.8392 42.9622 37.0255 42.9622H40.9783C41.1646 42.9622 41.3408 42.8657 41.4471 42.7079L43.3198 39.9184C43.481 39.6785 43.451 39.3525 43.2497 39.1477L41.7396 37.6206Z" fill="#A257FF"/>
<path d="M57.1022 42.9612C55.5996 41.3389 46.5863 38.4712 46.5863 38.4712L42.5759 49.2L41.5284 44.6787C41.4658 44.4113 41.2358 44.2222 40.9721 44.2222H37.028C36.7642 44.2222 36.5342 44.4113 36.4717 44.6787L35.4241 49.2L31.4137 38.4712C31.4137 38.4712 22.4004 41.3389 20.8978 42.9612C19.689 44.2666 19.1602 49.0917 19.0001 54.7671C18.9614 56.1403 26.8721 59.0002 38.9994 59.0002C51.1267 59.0002 59.0374 56.1403 58.9986 54.7671C58.8399 49.0917 58.3123 44.2666 57.1022 42.9612ZM51.5455 54.9249H45.5362V52.7314H51.5455V54.9249ZM19.0014 54.7671C18.9626 56.1403 26.8733 59.0002 39.0006 59.0002C50.0341 59.0002 59.0386 56.1403 58.9999 54.7671" fill="#A257FF"/>
<path d="M29.3823 34.3948C31.595 34.3948 33.5364 33.1833 34.6478 31.3706C34.8978 31.0342 36.4229 30.4134 39.0006 30.4134C41.5784 30.4134 43.1035 31.0355 43.3535 31.3706C44.4649 33.1846 46.4063 34.3948 48.619 34.3948C52.063 34.3948 54.8658 31.4723 54.8658 27.8783C54.8658 24.3859 52.2168 21.5365 48.9065 21.3787C47.9427 20.7697 44.9937 19 43.3098 19C42.1547 19 41.6246 19.7355 41.2358 20.2741C40.797 20.8831 40.4508 21.3643 38.9981 21.3643C37.5455 21.3643 37.1992 20.8831 36.7604 20.2741C36.3717 19.7368 35.8416 19 34.6865 19C33.0026 19 30.0524 20.7697 29.0898 21.3787C25.7832 21.5352 23.1355 24.3859 23.1355 27.8783C23.1355 31.4723 25.937 34.3948 29.3823 34.3948ZM48.619 23.3192C51.0292 23.3192 52.9894 25.364 52.9894 27.8783C52.9894 30.3926 51.0292 32.4374 48.619 32.4374C46.2088 32.4374 44.2473 30.3926 44.2473 27.8783C44.2473 25.364 46.21 23.3192 48.619 23.3192ZM29.3823 23.3192C31.7925 23.3192 33.7539 25.364 33.7539 27.8783C33.7539 30.3926 31.7925 32.4374 29.3823 32.4374C26.9721 32.4374 25.0119 30.3926 25.0119 27.8783C25.0119 25.364 26.9708 23.3192 29.3823 23.3192Z" fill="#A257FF"/>
<path d="M26.517 28.9665C26.8507 28.9665 27.1283 28.6913 27.1408 28.3405C27.2283 25.9971 29.0097 25.4663 29.0947 25.4402C29.4272 25.3516 29.6285 24.9981 29.5435 24.6513C29.461 24.3005 29.1209 24.0918 28.7859 24.1766C27.8283 24.4283 25.9919 25.6124 25.8919 28.2884C25.8782 28.6483 26.1469 28.9522 26.492 28.9652C26.5007 28.9665 26.5082 28.9665 26.517 28.9665Z" fill="#A257FF"/>
<path d="M45.7412 28.9664C46.075 28.9664 46.3525 28.6913 46.365 28.3405C46.4525 25.997 48.2339 25.4662 48.3189 25.4402C48.6514 25.3515 48.8527 24.9981 48.7677 24.6512C48.6839 24.3017 48.3427 24.093 48.0089 24.1778C47.0526 24.4295 45.2161 25.6149 45.1161 28.2896C45.1024 28.6495 45.3712 28.9534 45.7162 28.9664C45.7249 28.9664 45.7324 28.9664 45.7412 28.9664Z" fill="#A257FF"/>
</svg>
