<svg width="22" height="22" viewBox="0 0 22 22" fill="none" xmlns="http://www.w3.org/2000/svg">
<path d="M11 9V21M5.44444 15C2.98984 15 1 13.2091 1 11C1 9.0929 2.48286 7.4976 4.46746 7.09695C4.37966 6.74395 4.33333 6.37684 4.33333 6C4.33333 3.23858 6.82064 1 9.88889 1C12.577 1 14.8192 2.71825 15.3336 5.00098C15.3704 5.00033 15.4073 5 15.4444 5C18.5127 5 21 7.23858 21 10C21 12.419 19.0913 14.4367 16.5556 14.9L5.44444 15ZM14.3333 12L11 9L14.3333 12ZM11 9L7.66667 12L11 9Z" stroke="white" stroke-width="1.5" stroke-linecap="round" stroke-linejoin="round"/>
</svg>
